<svg width="16" height="16" viewBox="0 0 16 16" fill="none" xmlns="http://www.w3.org/2000/svg">
<path d="M2.32892 15.044H1.19521L1.99688 14.2423C2.42913 13.81 2.69906 13.2478 2.77163 12.638C1.64367 11.8977 0.818867 10.9239 0.377348 9.80704C-0.0638584 8.69105 -0.119303 7.46254 0.217026 6.25429C0.62057 4.8045 1.56707 3.48308 2.88211 2.53339C4.31113 1.50142 6.09011 0.955933 8.02674 0.955933C10.4664 0.955933 12.5227 1.65686 13.9734 2.98289C15.2803 4.17752 16 5.78891 16 7.52027C16 8.36142 15.8287 9.17987 15.491 9.9529C15.1414 10.7528 14.6296 11.4651 13.9697 12.0698C12.5171 13.4011 10.462 14.1048 8.02671 14.1048C7.12267 14.1048 6.1793 13.9841 5.33706 13.7626C4.53983 14.5804 3.45953 15.044 2.32892 15.044ZM8.02674 1.89514C4.14349 1.89514 1.7607 4.21099 1.12182 6.50615C0.518103 8.67508 1.40806 10.7245 3.50248 11.9884L3.7365 12.1297L3.7293 12.4029C3.71502 12.9437 3.5861 13.4645 3.35534 13.9354C3.91726 13.7453 4.42716 13.4006 4.82644 12.9289L5.02499 12.6943L5.31943 12.7823C6.14571 13.0295 7.10717 13.1656 8.02674 13.1656C12.8596 13.1656 15.0608 10.2392 15.0608 7.52027C15.0608 6.05586 14.4496 4.69064 13.3397 3.67611C12.0651 2.511 10.2279 1.89514 8.02674 1.89514Z" fill="white"/>
</svg>
