<svg width="22" height="22" viewBox="0 0 22 22" fill="none" xmlns="http://www.w3.org/2000/svg">
<path d="M21.9185 11.2604C21.7453 11.5125 17.5817 17.4169 10.9999 17.4169C5.35226 17.4169 0.319682 11.5464 0.107928 11.2962C-0.0359761 11.1257 -0.0359761 10.8754 0.107928 10.704C0.319682 10.4538 5.35226 4.58332 10.9999 4.58332C16.6476 4.58332 21.6802 10.4538 21.8919 10.704C22.0249 10.8617 22.0368 11.0899 21.9185 11.2604ZM10.9999 5.49999C6.47247 5.49999 2.16771 9.81755 1.07414 11.0001C2.16591 12.1835 6.46607 16.5002 10.9999 16.5002C16.2974 16.5002 20.0366 12.189 20.9496 11.0248C19.8954 9.8799 15.5659 5.49999 10.9999 5.49999Z" fill="white"/>
<path d="M11.0007 14.6669C8.97851 14.6669 7.33398 13.0223 7.33398 11.0002C7.33398 8.97796 8.97851 7.33343 11.0007 7.33343C13.0229 7.33343 14.6674 8.97796 14.6674 11.0002C14.6674 13.0223 13.0229 14.6669 11.0007 14.6669ZM11.0007 8.25006C9.48452 8.25006 8.25065 9.48393 8.25065 11.0001C8.25065 12.5163 9.48452 13.7502 11.0007 13.7502C12.5169 13.7502 13.7507 12.5163 13.7507 11.0001C13.7507 9.48393 12.5169 8.25006 11.0007 8.25006Z" fill="white"/>
</svg>
