<svg width="126" height="85" viewBox="0 0 126 85" fill="none" xmlns="http://www.w3.org/2000/svg">
<path d="M18.455 74.865C19.295 74.975 19.985 75.3 20.525 75.84C21.075 76.37 21.35 77.075 21.35 77.955C21.35 78.955 21.005 79.745 20.315 80.325C19.635 80.895 18.805 81.18 17.825 81.18C16.845 81.18 16.01 80.895 15.32 80.325C14.64 79.745 14.3 78.955 14.3 77.955H15.35C15.35 78.655 15.58 79.2 16.04 79.59C16.51 79.97 17.105 80.16 17.825 80.16C18.545 80.16 19.135 79.97 19.595 79.59C20.065 79.2 20.3 78.655 20.3 77.955C20.3 77.255 20.065 76.715 19.595 76.335C19.135 75.945 18.545 75.75 17.825 75.75V75.735L17.81 75.75H17.075V75.06L19.685 71.49H14.75V70.5H20.9V71.49L18.455 74.865ZM26.3041 81V80.055L30.0841 76.245C31.1641 75.165 31.7041 74.24 31.7041 73.47C31.7041 72.8 31.4941 72.28 31.0741 71.91C30.6641 71.53 30.1691 71.34 29.5891 71.34C28.9391 71.34 28.4041 71.515 27.9841 71.865C27.5641 72.215 27.3541 72.75 27.3541 73.47H26.3041C26.3041 72.46 26.6241 71.685 27.2641 71.145C27.9041 70.595 28.6791 70.32 29.5891 70.32C30.4291 70.32 31.1641 70.605 31.7941 71.175C32.4341 71.735 32.7541 72.5 32.7541 73.47C32.7541 74.08 32.5841 74.665 32.2441 75.225C31.9041 75.785 31.4241 76.375 30.8041 76.995L27.8041 79.98H32.9791V81H26.3041ZM41.617 77.91V78.9H40.267V81H39.217V78.9H33.667V77.91L37.567 70.5H38.722L34.822 77.91H39.217V74.7H40.267V77.91H41.617ZM45.9717 74.73C46.9517 74.73 47.7817 75.02 48.4617 75.6C49.1517 76.17 49.4967 76.955 49.4967 77.955C49.4967 78.955 49.1517 79.745 48.4617 80.325C47.7817 80.895 46.9517 81.18 45.9717 81.18C44.9917 81.18 44.1567 80.895 43.4667 80.325C42.7867 79.745 42.4467 78.955 42.4467 77.955H43.4967C43.4967 78.655 43.7267 79.2 44.1867 79.59C44.6567 79.97 45.2517 80.16 45.9717 80.16C46.6917 80.16 47.2817 79.97 47.7417 79.59C48.2117 79.2 48.4467 78.655 48.4467 77.955C48.4467 77.255 48.2117 76.715 47.7417 76.335C47.2817 75.945 46.6917 75.75 45.9717 75.75H42.9717L43.3467 70.5H49.1217V71.49H44.3067L44.0817 74.73H45.9717Z" fill="white"/>
<path d="M96.325 77.91V78.9H94.975V81H93.925V78.9H88.375V77.91L92.275 70.5H93.43L89.53 77.91H93.925V74.7H94.975V77.91H96.325ZM97.0082 81V80.055L100.788 76.245C101.868 75.165 102.408 74.24 102.408 73.47C102.408 72.8 102.198 72.28 101.778 71.91C101.368 71.53 100.873 71.34 100.293 71.34C99.6432 71.34 99.1082 71.515 98.6882 71.865C98.2682 72.215 98.0582 72.75 98.0582 73.47H97.0082C97.0082 72.46 97.3282 71.685 97.9682 71.145C98.6082 70.595 99.3832 70.32 100.293 70.32C101.133 70.32 101.868 70.605 102.498 71.175C103.138 71.735 103.458 72.5 103.458 73.47C103.458 74.08 103.288 74.665 102.948 75.225C102.608 75.785 102.128 76.375 101.508 76.995L98.5082 79.98H103.683V81H97.0082ZM111.793 79.71C111.103 80.69 110.128 81.18 108.868 81.18C107.608 81.18 106.628 80.69 105.928 79.71C105.238 78.72 104.893 77.4 104.893 75.75C104.893 74.1 105.238 72.785 105.928 71.805C106.628 70.815 107.608 70.32 108.868 70.32C110.128 70.32 111.103 70.815 111.793 71.805C112.493 72.785 112.843 74.1 112.843 75.75C112.843 77.4 112.493 78.72 111.793 79.71ZM106.708 79.005C107.228 79.775 107.948 80.16 108.868 80.16C109.788 80.16 110.503 79.775 111.013 79.005C111.533 78.235 111.793 77.15 111.793 75.75C111.793 74.35 111.533 73.265 111.013 72.495C110.503 71.725 109.788 71.34 108.868 71.34C107.948 71.34 107.228 71.725 106.708 72.495C106.198 73.265 105.943 74.35 105.943 75.75C105.943 77.15 106.198 78.235 106.708 79.005Z" fill="white"/>
<rect x="67" width="58.871" height="58.871" rx="10" fill="#1B2133"/>
<g clip-path="url(#clip0_1_1761)">
<path d="M103.633 34.6091L106.686 34.6091C107.107 34.6091 107.449 34.2674 107.449 33.8459L107.449 21.6344C107.449 21.213 107.108 20.8712 106.686 20.8712L103.633 20.8712C103.212 20.8712 102.87 21.2129 102.87 21.6344L102.87 33.8459C102.87 34.2674 103.212 34.6091 103.633 34.6091Z" fill="white"/>
<path d="M84.5662 32.5859C84.7008 33.7698 85.8068 34.609 86.9984 34.609L92.9486 34.609C92.443 35.5145 92.1715 38.0755 92.1836 39.1217C92.2035 40.8535 93.6376 42.2412 95.3694 42.2412L95.9992 42.2412C96.4211 42.2412 96.7625 41.8999 96.7625 41.478C96.7625 39.7131 97.4497 36.5275 98.7458 35.2313C99.6181 34.359 100.364 34.0428 101.342 33.5541L101.342 22.1021C99.8446 21.603 97.9437 20.871 95.0463 20.871L90.0537 20.871C88.4086 20.871 87.1274 22.3946 87.7648 24.0044C86.7937 24.2689 86.0774 25.1596 86.0774 26.2136C86.0774 26.511 86.1348 26.7957 86.2384 27.0573C84.6018 27.5032 83.9994 29.524 85.1353 30.7929C84.718 31.2591 84.4878 31.8968 84.5662 32.5859Z" fill="white"/>
</g>
<rect x="58.8711" y="58.8711" width="58.871" height="58.871" rx="10" transform="rotate(180 58.8711 58.8711)" fill="#1B2133"/>
<g clip-path="url(#clip1_1_1761)">
<path d="M22.238 24.262H19.1851C18.7636 24.262 18.4219 24.6037 18.4219 25.0252V37.2366C18.4219 37.6581 18.7636 37.9999 19.1851 37.9999H22.238C22.6595 37.9999 23.0012 37.6582 23.0012 37.2366V25.0252C23.0012 24.6037 22.6596 24.262 22.238 24.262Z" fill="white"/>
<path d="M41.3049 26.2852C41.1703 25.1012 40.0643 24.2621 38.8727 24.2621H32.9225C33.4281 23.3566 33.6996 20.7956 33.6875 19.7494C33.6676 18.0176 32.2335 16.6299 30.5017 16.6299H29.8719C29.45 16.6299 29.1086 16.9712 29.1086 17.3931C29.1086 19.158 28.4214 22.3436 27.1253 23.6398C26.253 24.5121 25.5072 24.8282 24.5293 25.317V36.769C26.0265 37.2681 27.9274 38.0001 30.8248 38.0001H35.8174C37.4625 38.0001 38.7437 36.4765 38.1062 34.8667C39.0774 34.6021 39.7937 33.7114 39.7937 32.6575C39.7937 32.3601 39.7363 32.0754 39.6327 31.8138C41.2693 31.3679 41.8717 29.3471 40.7358 28.0782C41.1531 27.612 41.3833 26.9743 41.3049 26.2852Z" fill="white"/>
</g>
<defs>
<clipPath id="clip0_1_1761">
<rect width="26" height="26" fill="white" transform="translate(109 46.8711) rotate(-180)"/>
</clipPath>
<clipPath id="clip1_1_1761">
<rect width="26" height="26" fill="white" transform="translate(16.8711 12)"/>
</clipPath>
</defs>
</svg>
