<svg width="134" height="24" viewBox="0 0 134 24" fill="none" xmlns="http://www.w3.org/2000/svg">
<path d="M133.061 13.0607C133.646 12.4749 133.646 11.5251 133.061 10.9393L123.515 1.3934C122.929 0.807611 121.979 0.807611 121.393 1.3934C120.808 1.97919 120.808 2.92893 121.393 3.51472L129.879 12L121.393 20.4853C120.808 21.0711 120.808 22.0208 121.393 22.6066C121.979 23.1924 122.929 23.1924 123.515 22.6066L133.061 13.0607ZM107 13.5L132 13.5V10.5L107 10.5V13.5Z" fill="white"/>
<path d="M0.939341 10.9393C0.353554 11.5251 0.353554 12.4749 0.939341 13.0607L10.4853 22.6066C11.0711 23.1924 12.0208 23.1924 12.6066 22.6066C13.1924 22.0208 13.1924 21.0711 12.6066 20.4853L4.12132 12L12.6066 3.51472C13.1924 2.92893 13.1924 1.97919 12.6066 1.3934C12.0208 0.807611 11.0711 0.807611 10.4853 1.3934L0.939341 10.9393ZM27 10.5L2 10.5V13.5L27 13.5V10.5Z" fill="white"/>
<path d="M50.76 19V17.48L55.7 12.48C57.02 11.16 57.68 10.0133 57.68 9.04C57.68 8.25333 57.44 7.64 56.96 7.2C56.4933 6.76 55.9133 6.54 55.22 6.54C54.4467 6.54 53.8133 6.75333 53.32 7.18C52.84 7.59333 52.6 8.22 52.6 9.06H50.76C50.76 7.66 51.1933 6.59333 52.06 5.86C52.9267 5.11333 53.9733 4.74 55.2 4.74C56.36 4.74 57.3733 5.12 58.24 5.88C59.1067 6.64 59.54 7.69333 59.54 9.04C59.54 10.48 58.7133 12.0133 57.06 13.64L53.46 17.2H59.8V19H50.76ZM62.3664 21H61.3264L69.3264 3H70.3664L62.3664 21ZM76.7128 10.46C78.0461 10.46 79.1661 10.8533 80.0728 11.64C80.9928 12.4133 81.4528 13.4867 81.4528 14.86C81.4528 16.22 80.9861 17.2933 80.0528 18.08C79.1195 18.8667 77.9861 19.26 76.6528 19.26C75.3195 19.26 74.1861 18.8667 73.2528 18.08C72.3195 17.2933 71.8528 16.22 71.8528 14.86H73.7128C73.7128 15.6733 73.9861 16.3067 74.5328 16.76C75.0795 17.2133 75.7861 17.44 76.6528 17.44C77.5328 17.44 78.2461 17.2133 78.7928 16.76C79.3395 16.3067 79.6128 15.6733 79.6128 14.86C79.6128 14.0467 79.3395 13.4133 78.7928 12.96C78.2461 12.4933 77.5328 12.26 76.6528 12.26H72.5328L73.0528 5H80.9128V6.74H74.7728L74.5128 10.46H76.7128Z" fill="white"/>
</svg>
