<svg width="134" height="24" viewBox="0 0 134 24" fill="none" xmlns="http://www.w3.org/2000/svg">
<path d="M133.061 13.0607C133.646 12.4749 133.646 11.5251 133.061 10.9393L123.515 1.3934C122.929 0.807611 121.979 0.807611 121.393 1.3934C120.808 1.97919 120.808 2.92893 121.393 3.51472L129.879 12L121.393 20.4853C120.808 21.0711 120.808 22.0208 121.393 22.6066C121.979 23.1924 122.929 23.1924 123.515 22.6066L133.061 13.0607ZM107 13.5L132 13.5V10.5L107 10.5V13.5Z" fill="white"/>
<path d="M0.939341 10.9393C0.353554 11.5251 0.353554 12.4749 0.939341 13.0607L10.4853 22.6066C11.0711 23.1924 12.0208 23.1924 12.6066 22.6066C13.1924 22.0208 13.1924 21.0711 12.6066 20.4853L4.12132 12L12.6066 3.51472C13.1924 2.92893 13.1924 1.97919 12.6066 1.3934C12.0208 0.807611 11.0711 0.807611 10.4853 1.3934L0.939341 10.9393ZM27 10.5L2 10.5V13.5L27 13.5V10.5Z" fill="white"/>
<path d="M58.22 14.6V16.34H56.52V19H54.66V16.34H47.48V14.6L52.5 5H54.5L49.5 14.6H54.66V10.64H56.52V14.6H58.22ZM60.3039 21H59.2639L67.2639 3H68.3039L60.3039 21ZM72.7703 5H74.6303V19H72.7703V6.94L69.3503 8.8V6.86L72.7703 5ZM81.7597 10.46C83.093 10.46 84.213 10.8533 85.1197 11.64C86.0397 12.4133 86.4997 13.4867 86.4997 14.86C86.4997 16.22 86.033 17.2933 85.0997 18.08C84.1664 18.8667 83.033 19.26 81.6997 19.26C80.3664 19.26 79.233 18.8667 78.2997 18.08C77.3664 17.2933 76.8997 16.22 76.8997 14.86H78.7597C78.7597 15.6733 79.033 16.3067 79.5797 16.76C80.1264 17.2133 80.833 17.44 81.6997 17.44C82.5797 17.44 83.293 17.2133 83.8397 16.76C84.3864 16.3067 84.6597 15.6733 84.6597 14.86C84.6597 14.0467 84.3864 13.4133 83.8397 12.96C83.293 12.4933 82.5797 12.26 81.6997 12.26H77.5797L78.0997 5H85.9597V6.74H79.8197L79.5597 10.46H81.7597Z" fill="white"/>
</svg>
