<svg width="188" height="41" viewBox="0 0 188 41" fill="none" xmlns="http://www.w3.org/2000/svg">
<rect x="147" width="41" height="41" rx="10" fill="#1E2538"/>
<path d="M175.137 16.5938C175.16 16.6875 175.172 16.8398 175.172 17.0508C175.172 18.293 174.938 19.5352 174.469 20.7773C174 21.9961 173.332 23.1211 172.465 24.1523C171.621 25.1602 170.52 25.9805 169.16 26.6133C167.801 27.2461 166.301 27.5625 164.66 27.5625C162.598 27.5625 160.711 27.0117 159 25.9102C159.258 25.9336 159.551 25.9453 159.879 25.9453C161.59 25.9453 163.125 25.418 164.484 24.3633C163.664 24.3633 162.938 24.1289 162.305 23.6602C161.695 23.168 161.273 22.5586 161.039 21.832C161.273 21.8555 161.496 21.8672 161.707 21.8672C162.035 21.8672 162.363 21.832 162.691 21.7617C162.129 21.6445 161.625 21.4102 161.18 21.0586C160.734 20.707 160.383 20.2852 160.125 19.793C159.867 19.2773 159.738 18.7266 159.738 18.1406V18.0703C160.254 18.375 160.805 18.5391 161.391 18.5625C160.289 17.8125 159.738 16.7812 159.738 15.4688C159.738 14.8125 159.914 14.1914 160.266 13.6055C161.18 14.7539 162.293 15.668 163.605 16.3477C164.941 17.0273 166.359 17.4023 167.859 17.4727C167.812 17.1914 167.789 16.9102 167.789 16.6289C167.789 15.6211 168.141 14.7539 168.844 14.0273C169.57 13.3008 170.438 12.9375 171.445 12.9375C172.523 12.9375 173.426 13.3242 174.152 14.0977C174.996 13.9336 175.781 13.6406 176.508 13.2188C176.227 14.0859 175.688 14.7656 174.891 15.2578C175.594 15.1641 176.297 14.9648 177 14.6602C176.484 15.4102 175.863 16.0547 175.137 16.5938Z" fill="white"/>
<rect x="98" width="41" height="41" rx="10" fill="#1E2538"/>
<path d="M127.156 20.4609C127.156 22.9453 126.371 24.9844 124.801 26.5781C123.254 28.1719 121.227 28.9688 118.719 28.9688C116.305 28.9688 114.242 28.125 112.531 26.4375C110.844 24.7266 110 22.6641 110 20.25C110 17.8359 110.844 15.7852 112.531 14.0977C114.242 12.3867 116.305 11.5312 118.719 11.5312C120.992 11.5312 122.938 12.293 124.555 13.8164L122.199 16.1016C121.449 15.375 120.547 14.9531 119.492 14.8359C118.461 14.6953 117.488 14.8242 116.574 15.2227C115.684 15.5977 114.91 16.2422 114.254 17.1562C113.621 18.0469 113.305 19.0781 113.305 20.25C113.305 21.7734 113.832 23.0742 114.887 24.1523C115.941 25.2305 117.219 25.7695 118.719 25.7695C119.539 25.7695 120.266 25.6406 120.898 25.3828C121.555 25.1016 122.059 24.7617 122.41 24.3633C122.785 23.9414 123.066 23.5312 123.254 23.1328C123.465 22.7344 123.605 22.3594 123.676 22.0078H118.719V18.9844H127.016C127.109 19.5 127.156 19.9922 127.156 20.4609Z" fill="white"/>
<rect x="49" width="41" height="41" rx="10" fill="#3657CB"/>
<path d="M73.8086 21.375H71.1719V29.25H67.6562V21.375H64.8086V18.1055H67.6562V15.6445C67.6562 14.707 67.832 13.9102 68.1836 13.2539C68.5352 12.5977 69.0273 12.1055 69.6602 11.7773C70.3164 11.4258 71.0664 11.25 71.9102 11.25C72.2852 11.25 72.6836 11.2734 73.1055 11.3203C73.5273 11.3438 73.8555 11.3789 74.0898 11.4258L74.4414 11.4609V14.2383H73.0352C72.3789 14.2383 71.8984 14.4141 71.5938 14.7656C71.3125 15.0938 71.1719 15.5039 71.1719 15.9961V18.1055H74.3008L73.8086 21.375Z" fill="white"/>
<rect width="41" height="41" rx="10" fill="#1E2538"/>
<path d="M29.1602 15.3984C29.0898 15.75 28.8086 16.3242 28.3164 17.1211C27.8477 17.918 27.4141 18.6211 27.0156 19.2305C26.6172 19.8164 26.4062 20.1211 26.3828 20.1445C26.2422 20.3555 26.1719 20.5078 26.1719 20.6016C26.1719 20.6953 26.2422 20.8594 26.3828 21.0938C26.3828 21.0938 26.4531 21.1758 26.5938 21.3398C26.7578 21.5039 26.9453 21.6914 27.1562 21.9023C27.3672 22.1133 27.6016 22.3594 27.8594 22.6406C28.1172 22.9219 28.3516 23.2031 28.5625 23.4844C28.7969 23.7422 28.9961 24.0117 29.1602 24.293C29.3477 24.5742 29.4766 24.8086 29.5469 24.9961C29.7109 25.582 29.4766 25.875 28.8438 25.875H26.7695C26.6055 25.875 26.4648 25.8516 26.3477 25.8047C26.2305 25.7578 26.1016 25.6758 25.9609 25.5586C25.8203 25.4414 25.6914 25.3125 25.5742 25.1719C25.457 25.0312 25.2812 24.832 25.0469 24.5742C24.8125 24.3164 24.5781 24.0703 24.3438 23.8359C23.4062 22.9453 22.7148 22.5 22.2695 22.5C21.9883 22.5 21.8242 22.582 21.7773 22.7461C21.7305 22.9102 21.707 23.3789 21.707 24.1523C21.7305 24.5273 21.7422 24.832 21.7422 25.0664C21.7422 25.3477 21.6484 25.5586 21.4609 25.6992C21.2734 25.8164 20.8633 25.875 20.2305 25.875C19.1289 25.875 18.0156 25.5469 16.8906 24.8906C15.7656 24.2344 14.7812 23.2969 13.9375 22.0781C13.1406 21 12.4727 19.9336 11.9336 18.8789C11.418 17.8008 11.0781 16.9805 10.9141 16.418C10.75 15.8555 10.668 15.457 10.668 15.2227C10.668 14.8242 10.9023 14.625 11.3711 14.625H13.4453C13.7031 14.625 13.8906 14.6836 14.0078 14.8008C14.1484 14.918 14.2656 15.1289 14.3594 15.4336C14.8516 16.8633 15.4492 18.1406 16.1523 19.2656C16.8789 20.3906 17.4297 20.9531 17.8047 20.9531C17.9453 20.9531 18.0391 20.9062 18.0859 20.8125C18.1562 20.6953 18.1914 20.4844 18.1914 20.1797V17.1211C18.168 16.793 18.1094 16.5117 18.0156 16.2773C17.9219 16.043 17.8281 15.8789 17.7344 15.7852C17.6406 15.668 17.5469 15.5508 17.4531 15.4336C17.3828 15.3164 17.3477 15.2109 17.3477 15.1172C17.3477 15.0234 17.3711 14.9414 17.418 14.8711C17.4648 14.8008 17.5234 14.7422 17.5938 14.6953C17.6875 14.6484 17.7812 14.625 17.875 14.625H21.1445C21.5195 14.625 21.707 14.8828 21.707 15.3984V19.4766C21.707 19.875 21.8125 20.0742 22.0234 20.0742C22.2578 20.0742 22.5859 19.8633 23.0078 19.4414C23.4531 18.9492 23.8867 18.3516 24.3086 17.6484C24.7305 16.9453 25.0469 16.3594 25.2578 15.8906L25.5742 15.2227C25.7383 14.8242 26.0312 14.625 26.4531 14.625H28.5273C29.0898 14.625 29.3008 14.8828 29.1602 15.3984Z" fill="white"/>
</svg>
