<svg width="498" height="444" viewBox="0 0 498 444" fill="none" xmlns="http://www.w3.org/2000/svg">
<rect x="0.373047" width="496.934" height="444" rx="10" fill="#1B2133"/>
<path d="M33.85 400.148C34.7647 400.148 35.5393 400.419 36.174 400.96C36.818 401.492 37.14 402.225 37.14 403.158C37.14 404.091 36.818 404.829 36.174 405.37C35.5393 405.902 34.7647 406.168 33.85 406.168C32.9353 406.168 32.156 405.902 31.512 405.37C30.8773 404.829 30.56 404.091 30.56 403.158H31.54C31.54 403.811 31.7547 404.32 32.184 404.684C32.6227 405.039 33.178 405.216 33.85 405.216C34.522 405.216 35.0727 405.039 35.502 404.684C35.9407 404.32 36.16 403.811 36.16 403.158C36.16 402.505 35.9407 402.001 35.502 401.646C35.0727 401.282 34.522 401.1 33.85 401.1H31.05L31.4 396.2H36.79V397.124H32.296L32.086 400.148H33.85ZM38.1205 406V405.118L41.6485 401.562C42.6565 400.554 43.1605 399.691 43.1605 398.972C43.1605 398.347 42.9645 397.861 42.5725 397.516C42.1899 397.161 41.7279 396.984 41.1865 396.984C40.5799 396.984 40.0805 397.147 39.6885 397.474C39.2965 397.801 39.1005 398.3 39.1005 398.972H38.1205C38.1205 398.029 38.4192 397.306 39.0165 396.802C39.6139 396.289 40.3372 396.032 41.1865 396.032C41.9705 396.032 42.6565 396.298 43.2445 396.83C43.8419 397.353 44.1405 398.067 44.1405 398.972C44.1405 399.541 43.9819 400.087 43.6645 400.61C43.3472 401.133 42.8992 401.683 42.3205 402.262L39.5205 405.048H44.3505V406H38.1205ZM53.596 399V399.896H50.32V406H49.396V399H53.596ZM60.2386 405.118C59.5292 405.818 58.6612 406.168 57.6346 406.168C56.6079 406.168 55.7352 405.818 55.0166 405.118C54.3072 404.409 53.9526 403.536 53.9526 402.5C53.9526 401.464 54.3072 400.596 55.0166 399.896C55.7352 399.187 56.6079 398.832 57.6346 398.832C58.6612 398.832 59.5292 399.187 60.2386 399.896C60.9572 400.596 61.3166 401.464 61.3166 402.5C61.3166 403.536 60.9572 404.409 60.2386 405.118ZM55.6746 404.474C56.2066 405.006 56.8599 405.272 57.6346 405.272C58.4092 405.272 59.0626 405.006 59.5946 404.474C60.1266 403.933 60.3926 403.275 60.3926 402.5C60.3926 401.725 60.1266 401.072 59.5946 400.54C59.0626 399.999 58.4092 399.728 57.6346 399.728C56.8599 399.728 56.2066 399.999 55.6746 400.54C55.1426 401.072 54.8766 401.725 54.8766 402.5C54.8766 403.275 55.1426 403.933 55.6746 404.474ZM68.1894 405.104H69.1694V406V408.016H68.2454V406H67.2654H62.8134V408.016H61.8894V405.496V405.104H62.7434C63.2194 404.479 63.4574 403.597 63.4574 402.458V399H64.3814H67.5314H68.1894V405.104ZM63.8634 405.104H67.2654V399.896H64.3814V402.458C64.3814 403.531 64.2087 404.413 63.8634 405.104ZM72.8203 398.832C73.6136 398.832 74.253 399.07 74.7383 399.546C75.233 400.013 75.4803 400.647 75.4803 401.45V406H74.5563V405.216C74.1083 405.851 73.385 406.168 72.3863 406.168C71.6956 406.168 71.103 405.972 70.6083 405.58C70.123 405.188 69.8803 404.633 69.8803 403.914C69.8803 403.195 70.123 402.64 70.6083 402.248C71.103 401.856 71.6956 401.66 72.3863 401.66C73.357 401.66 74.0803 401.963 74.5563 402.57V401.45C74.5563 400.862 74.3883 400.428 74.0523 400.148C73.7256 399.868 73.315 399.728 72.8203 399.728C72.335 399.728 71.9243 399.854 71.5883 400.106C71.2523 400.349 71.0843 400.703 71.0843 401.17H70.1603C70.1603 400.498 70.4076 399.943 70.9023 399.504C71.397 399.056 72.0363 398.832 72.8203 398.832ZM72.6103 405.3C73.1703 405.3 73.6323 405.169 73.9963 404.908C74.3696 404.647 74.5563 404.315 74.5563 403.914C74.5563 403.494 74.3743 403.158 74.0103 402.906C73.6463 402.654 73.1796 402.528 72.6103 402.528C72.013 402.528 71.5603 402.654 71.2523 402.906C70.9536 403.158 70.8043 403.494 70.8043 403.914C70.8043 404.334 70.9536 404.67 71.2523 404.922C71.5603 405.174 72.013 405.3 72.6103 405.3Z" fill="#F2F60F"/>
<path d="M41.6013 382.38L40.8813 380.265H36.5163L35.8113 382.38H33.9363L37.6713 371.88H39.7413L43.4613 382.38H41.6013ZM37.0713 378.645H40.3263L38.7063 373.845L37.0713 378.645ZM51.0293 382.38H49.0943L46.0943 378.915V382.38H44.4743V371.88H46.0943V378.195L48.9443 374.88H50.8793L47.6693 378.555L51.0293 382.38ZM53.2452 376.365C53.0252 376.505 52.9152 376.71 52.9152 376.98C52.9152 377.25 53.0552 377.465 53.3352 377.625C53.6252 377.775 53.9702 377.895 54.3702 377.985C54.7802 378.065 55.1902 378.17 55.6002 378.3C56.0102 378.43 56.3552 378.66 56.6352 378.99C56.9252 379.31 57.0702 379.735 57.0702 380.265C57.0702 380.985 56.7902 381.55 56.2302 381.96C55.6802 382.37 54.9802 382.575 54.1302 382.575C53.2602 382.575 52.5502 382.355 52.0002 381.915C51.4502 381.475 51.1752 380.855 51.1752 380.055H52.7652C52.7652 380.765 53.2202 381.12 54.1302 381.12C54.5302 381.12 54.8502 381.05 55.0902 380.91C55.3302 380.76 55.4502 380.545 55.4502 380.265C55.4502 379.995 55.3052 379.785 55.0152 379.635C54.7352 379.485 54.3902 379.37 53.9802 379.29C53.5702 379.2 53.1602 379.09 52.7502 378.96C52.3502 378.83 52.0052 378.6 51.7152 378.27C51.4352 377.94 51.2952 377.51 51.2952 376.98C51.2952 376.28 51.5652 375.725 52.1052 375.315C52.6552 374.895 53.3302 374.685 54.1302 374.685C54.9202 374.685 55.5802 374.905 56.1102 375.345C56.6502 375.785 56.9202 376.4 56.9202 377.19H55.3302C55.3302 376.84 55.2152 376.58 54.9852 376.41C54.7552 376.23 54.4702 376.14 54.1302 376.14C53.7702 376.14 53.4752 376.215 53.2452 376.365ZM62.36 374.685C63.08 374.685 63.67 374.945 64.13 375.465C64.6 375.975 64.835 376.67 64.835 377.55V382.38H63.215V377.64C63.215 377.18 63.085 376.825 62.825 376.575C62.575 376.325 62.245 376.2 61.835 376.2C61.375 376.2 60.99 376.35 60.68 376.65C60.38 376.95 60.23 377.425 60.23 378.075V382.38H58.61V371.88H60.23V375.735C60.69 375.035 61.4 374.685 62.36 374.685ZM69.4298 374.685C70.2998 374.685 71.0148 374.94 71.5748 375.45C72.1348 375.96 72.4148 376.67 72.4148 377.58V382.38H70.8248V381.675C70.3448 382.275 69.6348 382.575 68.6948 382.575C67.9748 382.575 67.3648 382.37 66.8648 381.96C66.3648 381.54 66.1148 380.95 66.1148 380.19C66.1148 379.43 66.3648 378.845 66.8648 378.435C67.3648 378.025 67.9748 377.82 68.6948 377.82C69.6048 377.82 70.3148 378.075 70.8248 378.585V377.655C70.8248 377.155 70.6998 376.79 70.4498 376.56C70.1998 376.32 69.8598 376.2 69.4298 376.2C69.0198 376.2 68.6848 376.305 68.4248 376.515C68.1648 376.715 68.0348 376.995 68.0348 377.355H66.4448C66.4448 376.545 66.7248 375.9 67.2848 375.42C67.8548 374.93 68.5698 374.685 69.4298 374.685ZM69.2198 381.315C69.6998 381.315 70.0848 381.21 70.3748 381C70.6748 380.79 70.8248 380.52 70.8248 380.19C70.8248 379.85 70.6748 379.58 70.3748 379.38C70.0848 379.18 69.6998 379.08 69.2198 379.08C68.7298 379.08 68.3598 379.18 68.1098 379.38C67.8598 379.58 67.7348 379.85 67.7348 380.19C67.7348 380.53 67.8598 380.805 68.1098 381.015C68.3598 381.215 68.7298 381.315 69.2198 381.315ZM78.5666 374.88H80.2916L76.6916 385.38H74.9666L76.0166 382.29L73.0916 374.88H74.8166L76.8266 380.04L78.5666 374.88ZM93.0901 382.38H91.0351L86.8951 377.385V382.38H85.1701V371.88H86.8951V376.575L90.8851 371.88H92.9401L88.6801 376.995L93.0901 382.38ZM98.2352 374.88H99.8552V382.38H98.2352V381.525C97.7752 382.225 97.0652 382.575 96.1052 382.575C95.3852 382.575 94.7902 382.32 94.3202 381.81C93.8602 381.29 93.6302 380.59 93.6302 379.71V374.88H95.2502V379.605C95.2502 380.075 95.3752 380.435 95.6252 380.685C95.8752 380.935 96.2052 381.06 96.6152 381.06C97.0852 381.06 97.4702 380.91 97.7702 380.61C98.0802 380.3 98.2352 379.825 98.2352 379.185V374.88ZM109.205 374.685C109.905 374.685 110.47 374.915 110.9 375.375C111.34 375.835 111.56 376.485 111.56 377.325V382.38H109.94V377.415C109.94 376.995 109.835 376.69 109.625 376.5C109.415 376.3 109.14 376.2 108.8 376.2C108.44 376.2 108.125 376.325 107.855 376.575C107.585 376.815 107.45 377.215 107.45 377.775V382.38H105.83V377.415C105.83 376.995 105.725 376.69 105.515 376.5C105.305 376.3 105.035 376.2 104.705 376.2C104.345 376.2 104.03 376.325 103.76 376.575C103.49 376.815 103.355 377.215 103.355 377.775V382.38H101.735V374.88H103.355V375.66C103.775 375.01 104.395 374.685 105.215 374.685C106.065 374.685 106.69 375.045 107.09 375.765C107.61 375.045 108.315 374.685 109.205 374.685ZM116.144 374.685C117.014 374.685 117.729 374.94 118.289 375.45C118.849 375.96 119.129 376.67 119.129 377.58V382.38H117.539V381.675C117.059 382.275 116.349 382.575 115.409 382.575C114.689 382.575 114.079 382.37 113.579 381.96C113.079 381.54 112.829 380.95 112.829 380.19C112.829 379.43 113.079 378.845 113.579 378.435C114.079 378.025 114.689 377.82 115.409 377.82C116.319 377.82 117.029 378.075 117.539 378.585V377.655C117.539 377.155 117.414 376.79 117.164 376.56C116.914 376.32 116.574 376.2 116.144 376.2C115.734 376.2 115.399 376.305 115.139 376.515C114.879 376.715 114.749 376.995 114.749 377.355H113.159C113.159 376.545 113.439 375.9 113.999 375.42C114.569 374.93 115.284 374.685 116.144 374.685ZM115.934 381.315C116.414 381.315 116.799 381.21 117.089 381C117.389 380.79 117.539 380.52 117.539 380.19C117.539 379.85 117.389 379.58 117.089 379.38C116.799 379.18 116.414 379.08 115.934 379.08C115.444 379.08 115.074 379.18 114.824 379.38C114.574 379.58 114.449 379.85 114.449 380.19C114.449 380.53 114.574 380.805 114.824 381.015C115.074 381.215 115.444 381.315 115.934 381.315ZM122.442 376.005C122.852 375.165 123.572 374.745 124.602 374.745V376.5C124.002 376.46 123.492 376.605 123.072 376.935C122.652 377.255 122.442 377.785 122.442 378.525V382.38H120.822V374.88H122.442V376.005Z" fill="#3B486B"/>
<path d="M396.613 368.923C397.703 368.923 398.593 369.258 399.283 369.928C399.973 370.588 400.318 371.448 400.318 372.508C400.318 373.568 399.973 374.433 399.283 375.103C398.593 375.763 397.703 376.093 396.613 376.093C395.513 376.093 394.618 375.763 393.928 375.103C393.238 374.433 392.893 373.568 392.893 372.508C392.893 371.708 393.103 371.003 393.523 370.393L396.853 365.398H398.818L396.418 368.923H396.613ZM396.613 374.458C397.193 374.458 397.668 374.283 398.038 373.933C398.408 373.573 398.593 373.098 398.593 372.508C398.593 371.918 398.408 371.448 398.038 371.098C397.668 370.738 397.193 370.558 396.613 370.558C396.023 370.558 395.543 370.738 395.173 371.098C394.803 371.448 394.618 371.918 394.618 372.508C394.618 373.098 394.803 373.573 395.173 373.933C395.543 374.283 396.023 374.458 396.613 374.458ZM401.741 372.118V370.558H407.291V372.118H401.741ZM410.543 372.838C410.663 373.438 410.928 373.898 411.338 374.218C411.758 374.538 412.263 374.698 412.853 374.698C413.253 374.698 413.613 374.613 413.933 374.443C414.253 374.273 414.483 374.053 414.623 373.783L416.273 373.768C416.043 374.488 415.618 375.058 414.998 375.478C414.388 375.888 413.663 376.093 412.823 376.093C411.643 376.093 410.688 375.723 409.958 374.983C409.228 374.233 408.863 373.288 408.863 372.148C408.863 371.018 409.228 370.078 409.958 369.328C410.688 368.578 411.633 368.203 412.793 368.203C413.893 368.203 414.788 368.588 415.478 369.358C416.168 370.118 416.513 371.053 416.513 372.163C416.513 372.333 416.493 372.558 416.453 372.838H410.543ZM410.528 371.503H414.878C414.778 370.903 414.533 370.448 414.143 370.138C413.763 369.828 413.313 369.673 412.793 369.673C412.193 369.673 411.693 369.838 411.293 370.168C410.893 370.498 410.638 370.943 410.528 371.503ZM429.446 368.398V375.898H427.871V370.858L426.026 374.458H425.066L423.221 370.858V375.898H421.646V368.398H423.221H423.386L425.546 372.613L427.706 368.398H429.446ZM432.574 372.838C432.694 373.438 432.959 373.898 433.369 374.218C433.789 374.538 434.294 374.698 434.884 374.698C435.284 374.698 435.644 374.613 435.964 374.443C436.284 374.273 436.514 374.053 436.654 373.783L438.304 373.768C438.074 374.488 437.649 375.058 437.029 375.478C436.419 375.888 435.694 376.093 434.854 376.093C433.674 376.093 432.719 375.723 431.989 374.983C431.259 374.233 430.894 373.288 430.894 372.148C430.894 371.018 431.259 370.078 431.989 369.328C432.719 368.578 433.664 368.203 434.824 368.203C435.924 368.203 436.819 368.588 437.509 369.358C438.199 370.118 438.544 371.053 438.544 372.163C438.544 372.333 438.524 372.558 438.484 372.838H432.574ZM432.559 371.503H436.909C436.809 370.903 436.564 370.448 436.174 370.138C435.794 369.828 435.344 369.673 434.824 369.673C434.224 369.673 433.724 369.838 433.324 370.168C432.924 370.498 432.669 370.943 432.559 371.503ZM447.172 373.273C446.982 374.103 446.542 374.783 445.852 375.313C445.162 375.833 444.367 376.093 443.467 376.093C442.337 376.093 441.392 375.713 440.632 374.953C439.882 374.193 439.507 373.258 439.507 372.148C439.507 371.028 439.882 370.093 440.632 369.343C441.392 368.583 442.337 368.203 443.467 368.203C444.377 368.203 445.172 368.468 445.852 368.998C446.542 369.518 446.982 370.193 447.172 371.023H445.462C445.302 370.643 445.042 370.343 444.682 370.123C444.332 369.903 443.927 369.793 443.467 369.793C442.807 369.793 442.252 370.018 441.802 370.468C441.352 370.918 441.127 371.478 441.127 372.148C441.127 372.818 441.352 373.378 441.802 373.828C442.252 374.278 442.807 374.503 443.467 374.503C443.927 374.503 444.337 374.393 444.697 374.173C445.057 373.943 445.312 373.643 445.462 373.273H447.172ZM453.436 368.398V369.928H451.291V375.898H449.671V369.928H447.511V368.398H451.291H453.436ZM457.808 376.093C456.708 376.093 455.773 375.713 455.003 374.953C454.233 374.193 453.848 373.258 453.848 372.148C453.848 371.038 454.233 370.103 455.003 369.343C455.773 368.583 456.708 368.203 457.808 368.203C458.918 368.203 459.853 368.583 460.613 369.343C461.383 370.103 461.768 371.038 461.768 372.148C461.768 373.258 461.383 374.193 460.613 374.953C459.853 375.713 458.918 376.093 457.808 376.093ZM456.143 373.843C456.593 374.293 457.148 374.518 457.808 374.518C458.468 374.518 459.023 374.293 459.473 373.843C459.923 373.393 460.148 372.828 460.148 372.148C460.148 371.468 459.923 370.903 459.473 370.453C459.023 370.003 458.468 369.778 457.808 369.778C457.148 369.778 456.593 370.003 456.143 370.453C455.693 370.903 455.468 371.468 455.468 372.148C455.468 372.828 455.693 373.393 456.143 373.843Z" fill="#F2F60F"/>
<path d="M43.8613 360.292L43.0613 357.772H37.7013L36.9013 360.292H33.9213L38.6813 346.292H42.1013L46.8613 360.292H43.8613ZM38.5213 355.192H42.2413L40.3813 349.352L38.5213 355.192ZM57.1677 360.292H54.1877L50.6877 355.772V360.292H48.1077V350.292H50.6877V354.692L53.9877 350.292H56.9677L53.1677 355.232L57.1677 360.292ZM68.9598 350.292H71.5398V360.292H68.9598H63.6998H59.2998H58.4398V350.292H61.0198V357.872H63.6998V350.292H66.2798V357.872H68.9598V350.292ZM77.9085 350.012C79.0818 350.012 80.0552 350.359 80.8285 351.052C81.6018 351.732 81.9885 352.692 81.9885 353.932V360.292H79.4685V359.432C78.8418 360.192 77.9352 360.572 76.7485 360.572C75.8018 360.572 75.0018 360.299 74.3485 359.752C73.7085 359.192 73.3885 358.412 73.3885 357.412C73.3885 356.412 73.7085 355.639 74.3485 355.092C75.0018 354.545 75.8018 354.272 76.7485 354.272C77.8818 354.272 78.7885 354.565 79.4685 355.152V354.092C79.4685 352.972 78.9485 352.412 77.9085 352.412C77.4418 352.412 77.0685 352.532 76.7885 352.772C76.5085 352.999 76.3685 353.305 76.3685 353.692H73.8485C73.8485 352.559 74.2352 351.665 75.0085 351.012C75.7952 350.345 76.7618 350.012 77.9085 350.012ZM77.6285 358.652C78.1885 358.652 78.6352 358.539 78.9685 358.312C79.3018 358.072 79.4685 357.772 79.4685 357.412C79.4685 357.025 79.3018 356.725 78.9685 356.512C78.6485 356.285 78.2018 356.172 77.6285 356.172C77.0818 356.172 76.6685 356.285 76.3885 356.512C76.1085 356.739 75.9685 357.039 75.9685 357.412C75.9685 357.785 76.1085 358.085 76.3885 358.312C76.6685 358.539 77.0818 358.652 77.6285 358.652ZM85.4643 349.012V346.772H91.2643V349.012H85.4643ZM90.7043 350.292H92.6243V360.292H90.1043V354.492L86.0043 360.292H84.0843V350.292H86.6043V356.092L90.7043 350.292ZM111.043 360.292H107.863L102.863 353.712V360.292H100.103V346.292H102.863V352.472L107.663 346.292H110.843L105.663 353.112L111.043 360.292ZM117.289 350.292H120.049L116.649 360.292C116.183 361.705 115.496 362.739 114.589 363.392C113.683 364.059 112.609 364.359 111.369 364.292V361.892C112.063 361.905 112.609 361.772 113.009 361.492C113.409 361.225 113.723 360.772 113.949 360.132L110.129 350.292H112.889L115.309 356.872L117.289 350.292ZM131.972 350.292V360.292H129.472V354.112L127.312 358.412H125.912L123.752 354.112V360.292H121.272V350.292H123.752H123.992L126.612 355.512L129.252 350.292H131.972ZM138.338 350.012C139.512 350.012 140.485 350.359 141.258 351.052C142.032 351.732 142.418 352.692 142.418 353.932V360.292H139.898V359.432C139.272 360.192 138.365 360.572 137.178 360.572C136.232 360.572 135.432 360.299 134.778 359.752C134.138 359.192 133.818 358.412 133.818 357.412C133.818 356.412 134.138 355.639 134.778 355.092C135.432 354.545 136.232 354.272 137.178 354.272C138.312 354.272 139.218 354.565 139.898 355.152V354.092C139.898 352.972 139.378 352.412 138.338 352.412C137.872 352.412 137.498 352.532 137.218 352.772C136.938 352.999 136.798 353.305 136.798 353.692H134.278C134.278 352.559 134.665 351.665 135.438 351.012C136.225 350.345 137.192 350.012 138.338 350.012ZM138.058 358.652C138.618 358.652 139.065 358.539 139.398 358.312C139.732 358.072 139.898 357.772 139.898 357.412C139.898 357.025 139.732 356.725 139.398 356.512C139.078 356.285 138.632 356.172 138.058 356.172C137.512 356.172 137.098 356.285 136.818 356.512C136.538 356.739 136.398 357.039 136.398 357.412C136.398 357.785 136.538 358.085 136.818 358.312C137.098 358.539 137.512 358.652 138.058 358.652ZM150.334 350.012C151.681 350.012 152.827 350.525 153.774 351.552C154.734 352.565 155.214 353.812 155.214 355.292C155.214 356.772 154.734 358.025 153.774 359.052C152.827 360.065 151.681 360.572 150.334 360.572C148.947 360.572 147.867 360.092 147.094 359.132V364.292H144.514V350.292H147.094V351.452C147.867 350.492 148.947 350.012 150.334 350.012ZM149.854 358.112C150.654 358.112 151.314 357.852 151.834 357.332C152.367 356.799 152.634 356.119 152.634 355.292C152.634 354.465 152.367 353.792 151.834 353.272C151.314 352.739 150.654 352.472 149.854 352.472C149.094 352.472 148.454 352.719 147.934 353.212C147.414 353.692 147.134 354.325 147.094 355.112V355.472C147.134 356.259 147.414 356.899 147.934 357.392C148.454 357.872 149.094 358.112 149.854 358.112Z" fill="white"/>
<line x1="33.8613" y1="325.248" x2="468.139" y2="325.248" stroke="#1E2538" stroke-width="2"/>
<path d="M37.77 300.116V301.04H36.51V303H35.53V301.04H30.35V300.116L33.99 293.2H35.068L31.428 300.116H35.53V297.12H36.51V300.116H37.77ZM38.4077 303V302.118L41.9357 298.562C42.9437 297.554 43.4477 296.691 43.4477 295.972C43.4477 295.347 43.2517 294.861 42.8597 294.516C42.477 294.161 42.015 293.984 41.4737 293.984C40.867 293.984 40.3677 294.147 39.9757 294.474C39.5837 294.801 39.3877 295.3 39.3877 295.972H38.4077C38.4077 295.029 38.7063 294.306 39.3037 293.802C39.901 293.289 40.6243 293.032 41.4737 293.032C42.2577 293.032 42.9437 293.298 43.5317 293.83C44.129 294.353 44.4277 295.067 44.4277 295.972C44.4277 296.541 44.269 297.087 43.9517 297.61C43.6343 298.133 43.1863 298.683 42.6077 299.262L39.8077 302.048H44.6377V303H38.4077ZM53.8831 296V296.896H50.6071V303H49.6831V296H53.8831ZM60.5257 302.118C59.8164 302.818 58.9484 303.168 57.9217 303.168C56.895 303.168 56.0224 302.818 55.3037 302.118C54.5944 301.409 54.2397 300.536 54.2397 299.5C54.2397 298.464 54.5944 297.596 55.3037 296.896C56.0224 296.187 56.895 295.832 57.9217 295.832C58.9484 295.832 59.8164 296.187 60.5257 296.896C61.2444 297.596 61.6037 298.464 61.6037 299.5C61.6037 300.536 61.2444 301.409 60.5257 302.118ZM55.9617 301.474C56.4937 302.006 57.147 302.272 57.9217 302.272C58.6964 302.272 59.3497 302.006 59.8817 301.474C60.4137 300.933 60.6797 300.275 60.6797 299.5C60.6797 298.725 60.4137 298.072 59.8817 297.54C59.3497 296.999 58.6964 296.728 57.9217 296.728C57.147 296.728 56.4937 296.999 55.9617 297.54C55.4297 298.072 55.1637 298.725 55.1637 299.5C55.1637 300.275 55.4297 300.933 55.9617 301.474ZM68.4765 302.104H69.4565V303V305.016H68.5325V303H67.5525H63.1005V305.016H62.1765V302.496V302.104H63.0305C63.5065 301.479 63.7445 300.597 63.7445 299.458V296H64.6685H67.8185H68.4765V302.104ZM64.1505 302.104H67.5525V296.896H64.6685V299.458C64.6685 300.531 64.4958 301.413 64.1505 302.104ZM73.1074 295.832C73.9008 295.832 74.5401 296.07 75.0254 296.546C75.5201 297.013 75.7674 297.647 75.7674 298.45V303H74.8434V302.216C74.3954 302.851 73.6721 303.168 72.6734 303.168C71.9828 303.168 71.3901 302.972 70.8954 302.58C70.4101 302.188 70.1674 301.633 70.1674 300.914C70.1674 300.195 70.4101 299.64 70.8954 299.248C71.3901 298.856 71.9828 298.66 72.6734 298.66C73.6441 298.66 74.3674 298.963 74.8434 299.57V298.45C74.8434 297.862 74.6754 297.428 74.3394 297.148C74.0128 296.868 73.6021 296.728 73.1074 296.728C72.6221 296.728 72.2114 296.854 71.8754 297.106C71.5394 297.349 71.3714 297.703 71.3714 298.17H70.4474C70.4474 297.498 70.6948 296.943 71.1894 296.504C71.6841 296.056 72.3234 295.832 73.1074 295.832ZM72.8974 302.3C73.4574 302.3 73.9194 302.169 74.2834 301.908C74.6568 301.647 74.8434 301.315 74.8434 300.914C74.8434 300.494 74.6614 300.158 74.2974 299.906C73.9334 299.654 73.4668 299.528 72.8974 299.528C72.3001 299.528 71.8474 299.654 71.5394 299.906C71.2408 300.158 71.0914 300.494 71.0914 300.914C71.0914 301.334 71.2408 301.67 71.5394 301.922C71.8474 302.174 72.3001 302.3 72.8974 302.3Z" fill="#F2F60F"/>
<path d="M41.1363 268.172V269.822H38.4813V278.672H36.7563V269.822H34.0863V268.172H38.4813H41.1363ZM44.5719 278.867C43.4719 278.867 42.5369 278.487 41.7669 277.727C40.9969 276.967 40.6119 276.032 40.6119 274.922C40.6119 273.812 40.9969 272.877 41.7669 272.117C42.5369 271.357 43.4719 270.977 44.5719 270.977C45.6819 270.977 46.6169 271.357 47.3769 272.117C48.1469 272.877 48.5319 273.812 48.5319 274.922C48.5319 276.032 48.1469 276.967 47.3769 277.727C46.6169 278.487 45.6819 278.867 44.5719 278.867ZM42.9069 276.617C43.3569 277.067 43.9119 277.292 44.5719 277.292C45.2319 277.292 45.7869 277.067 46.2369 276.617C46.6869 276.167 46.9119 275.602 46.9119 274.922C46.9119 274.242 46.6869 273.677 46.2369 273.227C45.7869 272.777 45.2319 272.552 44.5719 272.552C43.9119 272.552 43.3569 272.777 42.9069 273.227C42.4569 273.677 42.2319 274.242 42.2319 274.922C42.2319 275.602 42.4569 276.167 42.9069 276.617ZM57.4668 270.977C58.1668 270.977 58.7318 271.207 59.1618 271.667C59.6018 272.127 59.8218 272.777 59.8218 273.617V278.672H58.2018V273.707C58.2018 273.287 58.0968 272.982 57.8868 272.792C57.6768 272.592 57.4018 272.492 57.0618 272.492C56.7018 272.492 56.3868 272.617 56.1168 272.867C55.8468 273.107 55.7118 273.507 55.7118 274.067V278.672H54.0918V273.707C54.0918 273.287 53.9868 272.982 53.7768 272.792C53.5668 272.592 53.2968 272.492 52.9668 272.492C52.6068 272.492 52.2918 272.617 52.0218 272.867C51.7518 273.107 51.6168 273.507 51.6168 274.067V278.672H49.9968V271.172H51.6168V271.952C52.0368 271.302 52.6568 270.977 53.4768 270.977C54.3268 270.977 54.9518 271.337 55.3518 272.057C55.8718 271.337 56.5768 270.977 57.4668 270.977ZM71.0654 268.172H72.7904V278.672H71.0654V274.097H67.0904V278.672H65.3654V268.172H67.0904V272.447H71.0654V268.172ZM77.6769 270.977C78.5469 270.977 79.2619 271.232 79.8219 271.742C80.3819 272.252 80.6619 272.962 80.6619 273.872V278.672H79.0719V277.967C78.5919 278.567 77.8819 278.867 76.9419 278.867C76.2219 278.867 75.6119 278.662 75.1119 278.252C74.6119 277.832 74.3619 277.242 74.3619 276.482C74.3619 275.722 74.6119 275.137 75.1119 274.727C75.6119 274.317 76.2219 274.112 76.9419 274.112C77.8519 274.112 78.5619 274.367 79.0719 274.877V273.947C79.0719 273.447 78.9469 273.082 78.6969 272.852C78.4469 272.612 78.1069 272.492 77.6769 272.492C77.2669 272.492 76.9319 272.597 76.6719 272.807C76.4119 273.007 76.2819 273.287 76.2819 273.647H74.6919C74.6919 272.837 74.9719 272.192 75.5319 271.712C76.1019 271.222 76.8169 270.977 77.6769 270.977ZM77.4669 277.607C77.9469 277.607 78.3319 277.502 78.6219 277.292C78.9219 277.082 79.0719 276.812 79.0719 276.482C79.0719 276.142 78.9219 275.872 78.6219 275.672C78.3319 275.472 77.9469 275.372 77.4669 275.372C76.9769 275.372 76.6069 275.472 76.3569 275.672C76.1069 275.872 75.9819 276.142 75.9819 276.482C75.9819 276.822 76.1069 277.097 76.3569 277.307C76.6069 277.507 76.9769 277.607 77.4669 277.607ZM83.9752 272.297C84.3852 271.457 85.1052 271.037 86.1352 271.037V272.792C85.5352 272.752 85.0252 272.897 84.6052 273.227C84.1852 273.547 83.9752 274.077 83.9752 274.817V278.672H82.3552V271.172H83.9752V272.297ZM92.9684 268.172H94.5884V278.672H92.9684V277.592C92.3484 278.442 91.4684 278.867 90.3284 278.867C89.2984 278.867 88.4184 278.487 87.6884 277.727C86.9684 276.957 86.6084 276.022 86.6084 274.922C86.6084 273.812 86.9684 272.877 87.6884 272.117C88.4184 271.357 89.2984 270.977 90.3284 270.977C91.4784 270.977 92.3584 271.402 92.9684 272.252V268.172ZM88.9034 276.647C89.3534 277.097 89.9184 277.322 90.5984 277.322C91.2784 277.322 91.8434 277.097 92.2934 276.647C92.7434 276.187 92.9684 275.612 92.9684 274.922C92.9684 274.232 92.7434 273.662 92.2934 273.212C91.8434 272.752 91.2784 272.522 90.5984 272.522C89.9184 272.522 89.3534 272.752 88.9034 273.212C88.4534 273.662 88.2284 274.232 88.2284 274.922C88.2284 275.612 88.4534 276.187 88.9034 276.647ZM101.067 271.172H102.792L99.1916 281.672H97.4666L98.5166 278.582L95.5916 271.172H97.3166L99.3266 276.332L101.067 271.172Z" fill="#3B486B"/>
<path d="M396.763 265.65C397.783 265.65 398.638 265.95 399.328 266.55C400.018 267.14 400.363 267.96 400.363 269.01C400.363 270.06 400.008 270.885 399.298 271.485C398.588 272.085 397.718 272.385 396.688 272.385C395.658 272.385 394.788 272.085 394.078 271.485C393.368 270.885 393.013 270.06 393.013 269.01H394.738C394.738 269.53 394.913 269.945 395.263 270.255C395.613 270.555 396.088 270.705 396.688 270.705C397.278 270.705 397.748 270.555 398.098 270.255C398.458 269.945 398.638 269.53 398.638 269.01C398.638 268.49 398.458 268.08 398.098 267.78C397.748 267.48 397.278 267.33 396.688 267.33H393.508L393.913 261.69H399.913V263.31H395.518L395.338 265.65H396.763ZM401.888 268.41V266.85H407.438V268.41H401.888ZM410.689 269.13C410.809 269.73 411.074 270.19 411.484 270.51C411.904 270.83 412.409 270.99 412.999 270.99C413.399 270.99 413.759 270.905 414.079 270.735C414.399 270.565 414.629 270.345 414.769 270.075L416.419 270.06C416.189 270.78 415.764 271.35 415.144 271.77C414.534 272.18 413.809 272.385 412.969 272.385C411.789 272.385 410.834 272.015 410.104 271.275C409.374 270.525 409.009 269.58 409.009 268.44C409.009 267.31 409.374 266.37 410.104 265.62C410.834 264.87 411.779 264.495 412.939 264.495C414.039 264.495 414.934 264.88 415.624 265.65C416.314 266.41 416.659 267.345 416.659 268.455C416.659 268.625 416.639 268.85 416.599 269.13H410.689ZM410.674 267.795H415.024C414.924 267.195 414.679 266.74 414.289 266.43C413.909 266.12 413.459 265.965 412.939 265.965C412.339 265.965 411.839 266.13 411.439 266.46C411.039 266.79 410.784 267.235 410.674 267.795ZM429.593 264.69V272.19H428.018V267.15L426.173 270.75H425.213L423.368 267.15V272.19H421.793V264.69H423.368H423.533L425.693 268.905L427.853 264.69H429.593ZM432.721 269.13C432.841 269.73 433.106 270.19 433.516 270.51C433.936 270.83 434.441 270.99 435.031 270.99C435.431 270.99 435.791 270.905 436.111 270.735C436.431 270.565 436.661 270.345 436.801 270.075L438.451 270.06C438.221 270.78 437.796 271.35 437.176 271.77C436.566 272.18 435.841 272.385 435.001 272.385C433.821 272.385 432.866 272.015 432.136 271.275C431.406 270.525 431.041 269.58 431.041 268.44C431.041 267.31 431.406 266.37 432.136 265.62C432.866 264.87 433.811 264.495 434.971 264.495C436.071 264.495 436.966 264.88 437.656 265.65C438.346 266.41 438.691 267.345 438.691 268.455C438.691 268.625 438.671 268.85 438.631 269.13H432.721ZM432.706 267.795H437.056C436.956 267.195 436.711 266.74 436.321 266.43C435.941 266.12 435.491 265.965 434.971 265.965C434.371 265.965 433.871 266.13 433.471 266.46C433.071 266.79 432.816 267.235 432.706 267.795ZM447.319 269.565C447.129 270.395 446.689 271.075 445.999 271.605C445.309 272.125 444.514 272.385 443.614 272.385C442.484 272.385 441.539 272.005 440.779 271.245C440.029 270.485 439.654 269.55 439.654 268.44C439.654 267.32 440.029 266.385 440.779 265.635C441.539 264.875 442.484 264.495 443.614 264.495C444.524 264.495 445.319 264.76 445.999 265.29C446.689 265.81 447.129 266.485 447.319 267.315H445.609C445.449 266.935 445.189 266.635 444.829 266.415C444.479 266.195 444.074 266.085 443.614 266.085C442.954 266.085 442.399 266.31 441.949 266.76C441.499 267.21 441.274 267.77 441.274 268.44C441.274 269.11 441.499 269.67 441.949 270.12C442.399 270.57 442.954 270.795 443.614 270.795C444.074 270.795 444.484 270.685 444.844 270.465C445.204 270.235 445.459 269.935 445.609 269.565H447.319ZM453.583 264.69V266.22H451.438V272.19H449.818V266.22H447.658V264.69H451.438H453.583ZM457.955 272.385C456.855 272.385 455.92 272.005 455.15 271.245C454.38 270.485 453.995 269.55 453.995 268.44C453.995 267.33 454.38 266.395 455.15 265.635C455.92 264.875 456.855 264.495 457.955 264.495C459.065 264.495 460 264.875 460.76 265.635C461.53 266.395 461.915 267.33 461.915 268.44C461.915 269.55 461.53 270.485 460.76 271.245C460 272.005 459.065 272.385 457.955 272.385ZM456.29 270.135C456.74 270.585 457.295 270.81 457.955 270.81C458.615 270.81 459.17 270.585 459.62 270.135C460.07 269.685 460.295 269.12 460.295 268.44C460.295 267.76 460.07 267.195 459.62 266.745C459.17 266.295 458.615 266.07 457.955 266.07C457.295 266.07 456.74 266.295 456.29 266.745C455.84 267.195 455.615 267.76 455.615 268.44C455.615 269.12 455.84 269.685 456.29 270.135Z" fill="#F2F60F"/>
<path d="M43.76 243V245.64H40.38V257H37.62V245.64H34.26V243H40.38H43.76ZM52.0398 255.76C51.0132 256.773 49.7598 257.28 48.2798 257.28C46.7998 257.28 45.5465 256.773 44.5198 255.76C43.5065 254.733 42.9998 253.48 42.9998 252C42.9998 250.52 43.5065 249.273 44.5198 248.26C45.5465 247.233 46.7998 246.72 48.2798 246.72C49.7598 246.72 51.0132 247.233 52.0398 248.26C53.0665 249.273 53.5798 250.52 53.5798 252C53.5798 253.48 53.0665 254.733 52.0398 255.76ZM46.3398 253.98C46.8598 254.5 47.5065 254.76 48.2798 254.76C49.0532 254.76 49.6998 254.5 50.2198 253.98C50.7398 253.46 50.9998 252.8 50.9998 252C50.9998 251.2 50.7398 250.54 50.2198 250.02C49.6998 249.5 49.0532 249.24 48.2798 249.24C47.5065 249.24 46.8598 249.5 46.3398 250.02C45.8332 250.54 45.5798 251.2 45.5798 252C45.5798 252.8 45.8332 253.46 46.3398 253.98ZM66.0948 247V257H63.5948V250.82L61.4348 255.12H60.0348L57.8748 250.82V257H55.3948V247H57.8748H58.1148L60.7348 252.22L63.3748 247H66.0948ZM84.0412 257H80.9213L78.2813 252.48L75.6413 257H72.5413L76.7213 249.8L72.7613 243H75.8813L78.2813 247.14L80.7013 243H83.8013L79.8413 249.8L84.0412 257ZM89.0628 246.72C90.2361 246.72 91.2095 247.067 91.9828 247.76C92.7561 248.44 93.1428 249.4 93.1428 250.64V257H90.6228V256.14C89.9961 256.9 89.0895 257.28 87.9028 257.28C86.9561 257.28 86.1561 257.007 85.5028 256.46C84.8628 255.9 84.5428 255.12 84.5428 254.12C84.5428 253.12 84.8628 252.347 85.5028 251.8C86.1561 251.253 86.9561 250.98 87.9028 250.98C89.0361 250.98 89.9428 251.273 90.6228 251.86V250.8C90.6228 249.68 90.1028 249.12 89.0628 249.12C88.5961 249.12 88.2228 249.24 87.9428 249.48C87.6628 249.707 87.5228 250.013 87.5228 250.4H85.0028C85.0028 249.267 85.3895 248.373 86.1628 247.72C86.9495 247.053 87.9161 246.72 89.0628 246.72ZM88.7828 255.36C89.3428 255.36 89.7895 255.247 90.1228 255.02C90.4561 254.78 90.6228 254.48 90.6228 254.12C90.6228 253.733 90.4561 253.433 90.1228 253.22C89.8028 252.993 89.3561 252.88 88.7828 252.88C88.2361 252.88 87.8228 252.993 87.5428 253.22C87.2628 253.447 87.1228 253.747 87.1228 254.12C87.1228 254.493 87.2628 254.793 87.5428 255.02C87.8228 255.247 88.2361 255.36 88.7828 255.36ZM101.059 246.72C102.405 246.72 103.552 247.233 104.499 248.26C105.459 249.273 105.939 250.52 105.939 252C105.939 253.48 105.459 254.733 104.499 255.76C103.552 256.773 102.405 257.28 101.059 257.28C99.6719 257.28 98.5919 256.8 97.8186 255.84V261H95.2386V247H97.8186V248.16C98.5919 247.2 99.6719 246.72 101.059 246.72ZM100.579 254.82C101.379 254.82 102.039 254.56 102.559 254.04C103.092 253.507 103.359 252.827 103.359 252C103.359 251.173 103.092 250.5 102.559 249.98C102.039 249.447 101.379 249.18 100.579 249.18C99.8186 249.18 99.1786 249.427 98.6586 249.92C98.1386 250.4 97.8586 251.033 97.8186 251.82V252.18C97.8586 252.967 98.1386 253.607 98.6586 254.1C99.1786 254.58 99.8186 254.82 100.579 254.82ZM116.182 254.66H117.502V257V259.88H114.982V257H109.182V259.88H106.662V256.28V254.66H107.822C108.436 253.82 108.742 252.613 108.742 251.04V247H111.262H115.242H116.182V254.66ZM110.602 254.66H113.662V249.32H111.262V251.04C111.262 252.493 111.042 253.7 110.602 254.66ZM125.765 247H127.685V257H125.165V251.2L121.065 257H119.145V247H121.665V252.8L125.765 247Z" fill="white"/>
<line x1="33.8613" y1="221.54" x2="468.139" y2="221.54" stroke="#1E2538" stroke-width="2"/>
<path d="M33.71 192.7C34.6713 192.7 35.46 193.003 36.076 193.61C36.692 194.207 37 194.982 37 195.934C37 196.886 36.692 197.665 36.076 198.272C35.46 198.869 34.6713 199.168 33.71 199.168C32.7487 199.168 31.96 198.869 31.344 198.272C30.728 197.665 30.42 196.886 30.42 195.934C30.42 195.197 30.6207 194.543 31.022 193.974L34.228 189.2H35.334L32.926 192.784C33.178 192.728 33.4393 192.7 33.71 192.7ZM32.03 197.586C32.4593 198.006 33.0193 198.216 33.71 198.216C34.4007 198.216 34.956 198.006 35.376 197.586C35.8053 197.166 36.02 196.615 36.02 195.934C36.02 195.253 35.8053 194.702 35.376 194.282C34.956 193.862 34.4007 193.652 33.71 193.652C33.0193 193.652 32.4593 193.862 32.03 194.282C31.61 194.702 31.4 195.253 31.4 195.934C31.4 196.615 31.61 197.166 32.03 197.586ZM41.1338 192.7C42.0952 192.7 42.8838 193.003 43.4998 193.61C44.1158 194.207 44.4238 194.982 44.4238 195.934C44.4238 196.886 44.1158 197.665 43.4998 198.272C42.8838 198.869 42.0952 199.168 41.1338 199.168C40.1725 199.168 39.3838 198.869 38.7678 198.272C38.1518 197.665 37.8438 196.886 37.8438 195.934C37.8438 195.197 38.0445 194.543 38.4458 193.974L41.6518 189.2H42.7578L40.3498 192.784C40.6018 192.728 40.8632 192.7 41.1338 192.7ZM39.4538 197.586C39.8832 198.006 40.4432 198.216 41.1338 198.216C41.8245 198.216 42.3798 198.006 42.7998 197.586C43.2292 197.166 43.4438 196.615 43.4438 195.934C43.4438 195.253 43.2292 194.702 42.7998 194.282C42.3798 193.862 41.8245 193.652 41.1338 193.652C40.4432 193.652 39.8832 193.862 39.4538 194.282C39.0338 194.702 38.8238 195.253 38.8238 195.934C38.8238 196.615 39.0338 197.166 39.4538 197.586ZM54.7877 192V199H53.8637V192.896H50.9797V196.018C50.9797 197.185 50.7557 197.987 50.3077 198.426C49.869 198.865 49.2623 199.056 48.4877 199V198.132C49.0197 198.188 49.4117 198.062 49.6637 197.754C49.925 197.446 50.0557 196.867 50.0557 196.018V192H50.9797H54.7877ZM59.9155 191.832C60.9422 191.832 61.7635 192.196 62.3795 192.924C63.0048 193.652 63.3175 194.52 63.3175 195.528C63.3175 195.631 63.3082 195.775 63.2895 195.962H62.3655H57.2835C57.3768 196.671 57.6615 197.236 58.1375 197.656C58.6228 198.067 59.2202 198.272 59.9295 198.272C60.4335 198.272 60.8722 198.165 61.2455 197.95C61.6188 197.726 61.8848 197.437 62.0435 197.082H63.0655C62.8695 197.698 62.4868 198.202 61.9175 198.594C61.3482 198.977 60.6808 199.168 59.9155 199.168C58.8515 199.168 57.9882 198.823 57.3255 198.132C56.6628 197.441 56.3315 196.564 56.3315 195.5C56.3315 194.455 56.6628 193.582 57.3255 192.882C57.9882 192.182 58.8515 191.832 59.9155 191.832ZM59.9155 192.728C59.1875 192.728 58.5855 192.943 58.1095 193.372C57.6428 193.801 57.3675 194.366 57.2835 195.066H62.3655C62.2815 194.329 62.0108 193.755 61.5535 193.344C61.0962 192.933 60.5502 192.728 59.9155 192.728ZM68.9288 192V192.896H66.7308V199H65.8068V192.896H63.6088V192H66.7308H68.9288Z" fill="#F2F60F"/>
<path d="M39.9813 174.319C39.3113 174.879 38.4963 175.159 37.5363 175.159C36.5763 175.159 35.7613 174.879 35.0913 174.319C34.4213 173.759 34.0863 172.954 34.0863 171.904V171.679H35.8113V171.904C35.8113 172.424 35.9663 172.819 36.2763 173.089C36.5863 173.349 37.0063 173.479 37.5363 173.479C38.0663 173.479 38.4863 173.349 38.7963 173.089C39.1063 172.819 39.2613 172.424 39.2613 171.904V164.464H40.9863V171.904C40.9863 172.954 40.6513 173.759 39.9813 174.319ZM45.6408 167.269C46.5108 167.269 47.2258 167.524 47.7858 168.034C48.3458 168.544 48.6258 169.254 48.6258 170.164V174.964H47.0358V174.259C46.5558 174.859 45.8458 175.159 44.9058 175.159C44.1858 175.159 43.5758 174.954 43.0758 174.544C42.5758 174.124 42.3258 173.534 42.3258 172.774C42.3258 172.014 42.5758 171.429 43.0758 171.019C43.5758 170.609 44.1858 170.404 44.9058 170.404C45.8158 170.404 46.5258 170.659 47.0358 171.169V170.239C47.0358 169.739 46.9108 169.374 46.6608 169.144C46.4108 168.904 46.0708 168.784 45.6408 168.784C45.2308 168.784 44.8958 168.889 44.6358 169.099C44.3758 169.299 44.2458 169.579 44.2458 169.939H42.6558C42.6558 169.129 42.9358 168.484 43.4958 168.004C44.0658 167.514 44.7808 167.269 45.6408 167.269ZM45.4308 173.899C45.9108 173.899 46.2958 173.794 46.5858 173.584C46.8858 173.374 47.0358 173.104 47.0358 172.774C47.0358 172.434 46.8858 172.164 46.5858 171.964C46.2958 171.764 45.9108 171.664 45.4308 171.664C44.9408 171.664 44.5708 171.764 44.3208 171.964C44.0708 172.164 43.9458 172.434 43.9458 172.774C43.9458 173.114 44.0708 173.389 44.3208 173.599C44.5708 173.799 44.9408 173.899 45.4308 173.899ZM57.564 172.339C57.374 173.169 56.934 173.849 56.244 174.379C55.554 174.899 54.759 175.159 53.859 175.159C52.729 175.159 51.784 174.779 51.024 174.019C50.274 173.259 49.899 172.324 49.899 171.214C49.899 170.094 50.274 169.159 51.024 168.409C51.784 167.649 52.729 167.269 53.859 167.269C54.769 167.269 55.564 167.534 56.244 168.064C56.934 168.584 57.374 169.259 57.564 170.089H55.854C55.694 169.709 55.434 169.409 55.074 169.189C54.724 168.969 54.319 168.859 53.859 168.859C53.199 168.859 52.644 169.084 52.194 169.534C51.744 169.984 51.519 170.544 51.519 171.214C51.519 171.884 51.744 172.444 52.194 172.894C52.644 173.344 53.199 173.569 53.859 173.569C54.319 173.569 54.729 173.459 55.089 173.239C55.449 173.009 55.704 172.709 55.854 172.339H57.564ZM65.3994 174.964H63.4644L60.4644 171.499V174.964H58.8444V164.464H60.4644V170.779L63.3144 167.464H65.2494L62.0394 171.139L65.3994 174.964ZM66.4909 166.264V164.464H68.1109V166.264H66.4909ZM66.4909 174.964V167.464H68.1109V174.964H66.4909ZM71.2519 171.904C71.3719 172.504 71.6369 172.964 72.0469 173.284C72.4669 173.604 72.9719 173.764 73.5619 173.764C73.9619 173.764 74.3219 173.679 74.6419 173.509C74.9619 173.339 75.1919 173.119 75.3319 172.849L76.9819 172.834C76.7519 173.554 76.3269 174.124 75.7069 174.544C75.0969 174.954 74.3719 175.159 73.5319 175.159C72.3519 175.159 71.3969 174.789 70.6669 174.049C69.9369 173.299 69.5719 172.354 69.5719 171.214C69.5719 170.084 69.9369 169.144 70.6669 168.394C71.3969 167.644 72.3419 167.269 73.5019 167.269C74.6019 167.269 75.4969 167.654 76.1869 168.424C76.8769 169.184 77.2219 170.119 77.2219 171.229C77.2219 171.399 77.2019 171.624 77.1619 171.904H71.2519ZM71.2369 170.569H75.5869C75.4869 169.969 75.2419 169.514 74.8519 169.204C74.4719 168.894 74.0219 168.739 73.5019 168.739C72.9019 168.739 72.4019 168.904 72.0019 169.234C71.6019 169.564 71.3469 170.009 71.2369 170.569ZM87.4252 175.159C85.8452 175.159 84.5352 174.639 83.4952 173.599C82.4552 172.549 81.9352 171.254 81.9352 169.714C81.9352 168.174 82.4552 166.884 83.4952 165.844C84.5352 164.794 85.8452 164.269 87.4252 164.269C88.6352 164.269 89.7052 164.624 90.6352 165.334C91.5752 166.034 92.1802 166.944 92.4502 168.064H90.6352C90.4152 167.424 90.0102 166.914 89.4202 166.534C88.8302 166.144 88.1652 165.949 87.4252 165.949C86.3052 165.949 85.3952 166.304 84.6952 167.014C84.0052 167.724 83.6602 168.624 83.6602 169.714C83.6602 170.804 84.0052 171.704 84.6952 172.414C85.3952 173.124 86.3052 173.479 87.4252 173.479C88.1652 173.479 88.8302 173.289 89.4202 172.909C90.0102 172.519 90.4152 172.004 90.6352 171.364H92.4502C92.1902 172.474 91.5902 173.384 90.6502 174.094C89.7102 174.804 88.6352 175.159 87.4252 175.159ZM97.443 167.269C98.163 167.269 98.753 167.529 99.213 168.049C99.683 168.559 99.918 169.254 99.918 170.134V174.964H98.298V170.224C98.298 169.764 98.168 169.409 97.908 169.159C97.658 168.909 97.328 168.784 96.918 168.784C96.458 168.784 96.073 168.934 95.763 169.234C95.463 169.534 95.313 170.009 95.313 170.659V174.964H93.693V164.464H95.313V168.319C95.773 167.619 96.483 167.269 97.443 167.269ZM104.513 167.269C105.383 167.269 106.098 167.524 106.658 168.034C107.218 168.544 107.498 169.254 107.498 170.164V174.964H105.908V174.259C105.428 174.859 104.718 175.159 103.778 175.159C103.058 175.159 102.448 174.954 101.948 174.544C101.448 174.124 101.198 173.534 101.198 172.774C101.198 172.014 101.448 171.429 101.948 171.019C102.448 170.609 103.058 170.404 103.778 170.404C104.688 170.404 105.398 170.659 105.908 171.169V170.239C105.908 169.739 105.783 169.374 105.533 169.144C105.283 168.904 104.943 168.784 104.513 168.784C104.103 168.784 103.768 168.889 103.508 169.099C103.248 169.299 103.118 169.579 103.118 169.939H101.528C101.528 169.129 101.808 168.484 102.368 168.004C102.938 167.514 103.653 167.269 104.513 167.269ZM104.303 173.899C104.783 173.899 105.168 173.794 105.458 173.584C105.758 173.374 105.908 173.104 105.908 172.774C105.908 172.434 105.758 172.164 105.458 171.964C105.168 171.764 104.783 171.664 104.303 171.664C103.813 171.664 103.443 171.764 103.193 171.964C102.943 172.164 102.818 172.434 102.818 172.774C102.818 173.114 102.943 173.389 103.193 173.599C103.443 173.799 103.813 173.899 104.303 173.899ZM112.941 167.269C113.661 167.269 114.251 167.529 114.711 168.049C115.181 168.559 115.416 169.254 115.416 170.134V174.964H113.796V170.224C113.796 169.764 113.666 169.409 113.406 169.159C113.156 168.909 112.826 168.784 112.416 168.784C111.956 168.784 111.571 168.934 111.261 169.234C110.961 169.534 110.811 170.009 110.811 170.659V174.964H109.191V167.464H110.811V168.319C111.271 167.619 111.981 167.269 112.941 167.269Z" fill="#3B486B"/>
<path d="M401.038 164.987V166.592H399.838V168.482H398.098V166.592H392.863V164.987L396.478 157.982H398.353L394.723 164.987H398.098V162.257H399.838V164.987H401.038ZM402.269 164.702V163.142H407.819V164.702H402.269ZM411.07 165.422C411.19 166.022 411.455 166.482 411.865 166.802C412.285 167.122 412.79 167.282 413.38 167.282C413.78 167.282 414.14 167.197 414.46 167.027C414.78 166.857 415.01 166.637 415.15 166.367L416.8 166.352C416.57 167.072 416.145 167.642 415.525 168.062C414.915 168.472 414.19 168.677 413.35 168.677C412.17 168.677 411.215 168.307 410.485 167.567C409.755 166.817 409.39 165.872 409.39 164.732C409.39 163.602 409.755 162.662 410.485 161.912C411.215 161.162 412.16 160.787 413.32 160.787C414.42 160.787 415.315 161.172 416.005 161.942C416.695 162.702 417.04 163.637 417.04 164.747C417.04 164.917 417.02 165.142 416.98 165.422H411.07ZM411.055 164.087H415.405C415.305 163.487 415.06 163.032 414.67 162.722C414.29 162.412 413.84 162.257 413.32 162.257C412.72 162.257 412.22 162.422 411.82 162.752C411.42 163.082 411.165 163.527 411.055 164.087ZM429.974 160.982V168.482H428.399V163.442L426.554 167.042H425.594L423.749 163.442V168.482H422.174V160.982H423.749H423.914L426.074 165.197L428.234 160.982H429.974ZM433.101 165.422C433.221 166.022 433.486 166.482 433.896 166.802C434.316 167.122 434.821 167.282 435.411 167.282C435.811 167.282 436.171 167.197 436.491 167.027C436.811 166.857 437.041 166.637 437.181 166.367L438.831 166.352C438.601 167.072 438.176 167.642 437.556 168.062C436.946 168.472 436.221 168.677 435.381 168.677C434.201 168.677 433.246 168.307 432.516 167.567C431.786 166.817 431.421 165.872 431.421 164.732C431.421 163.602 431.786 162.662 432.516 161.912C433.246 161.162 434.191 160.787 435.351 160.787C436.451 160.787 437.346 161.172 438.036 161.942C438.726 162.702 439.071 163.637 439.071 164.747C439.071 164.917 439.051 165.142 439.011 165.422H433.101ZM433.086 164.087H437.436C437.336 163.487 437.091 163.032 436.701 162.722C436.321 162.412 435.871 162.257 435.351 162.257C434.751 162.257 434.251 162.422 433.851 162.752C433.451 163.082 433.196 163.527 433.086 164.087ZM447.7 165.857C447.51 166.687 447.07 167.367 446.38 167.897C445.69 168.417 444.895 168.677 443.995 168.677C442.865 168.677 441.92 168.297 441.16 167.537C440.41 166.777 440.035 165.842 440.035 164.732C440.035 163.612 440.41 162.677 441.16 161.927C441.92 161.167 442.865 160.787 443.995 160.787C444.905 160.787 445.7 161.052 446.38 161.582C447.07 162.102 447.51 162.777 447.7 163.607H445.99C445.83 163.227 445.57 162.927 445.21 162.707C444.86 162.487 444.455 162.377 443.995 162.377C443.335 162.377 442.78 162.602 442.33 163.052C441.88 163.502 441.655 164.062 441.655 164.732C441.655 165.402 441.88 165.962 442.33 166.412C442.78 166.862 443.335 167.087 443.995 167.087C444.455 167.087 444.865 166.977 445.225 166.757C445.585 166.527 445.84 166.227 445.99 165.857H447.7ZM453.964 160.982V162.512H451.819V168.482H450.199V162.512H448.039V160.982H451.819H453.964ZM458.336 168.677C457.236 168.677 456.301 168.297 455.531 167.537C454.761 166.777 454.376 165.842 454.376 164.732C454.376 163.622 454.761 162.687 455.531 161.927C456.301 161.167 457.236 160.787 458.336 160.787C459.446 160.787 460.381 161.167 461.141 161.927C461.911 162.687 462.296 163.622 462.296 164.732C462.296 165.842 461.911 166.777 461.141 167.537C460.381 168.297 459.446 168.677 458.336 168.677ZM456.671 166.427C457.121 166.877 457.676 167.102 458.336 167.102C458.996 167.102 459.551 166.877 460.001 166.427C460.451 165.977 460.676 165.412 460.676 164.732C460.676 164.052 460.451 163.487 460.001 163.037C459.551 162.587 458.996 162.362 458.336 162.362C457.676 162.362 457.121 162.587 456.671 163.037C456.221 163.487 455.996 164.052 455.996 164.732C455.996 165.412 456.221 165.977 456.671 166.427Z" fill="#F2F60F"/>
<path d="M45.4613 150.296H46.9613V152.876V155.756H44.2213V152.876H36.9213V155.756H34.1613V152.156V150.296H35.4813C36.2813 149.243 36.6813 147.643 36.6813 145.496V138.876H45.4613V150.296ZM38.4413 150.296H42.7213V141.456H39.4413V145.536C39.4413 147.603 39.108 149.189 38.4413 150.296ZM62.1937 152.876H59.2937L56.2337 148.396V152.876H53.7137V148.396L50.6537 152.876H47.7737L51.3737 147.816L47.9737 142.876H50.8537L53.7137 147.216V142.876H56.2337V147.216L59.0937 142.876H61.9937L58.5737 147.816L62.1937 152.876ZM65.0529 148.936C65.2129 149.616 65.5329 150.136 66.0129 150.496C66.5062 150.843 67.0862 151.016 67.7529 151.016C68.2062 151.016 68.6196 150.923 68.9929 150.736C69.3662 150.549 69.6396 150.309 69.8129 150.016L72.3529 149.996C72.0462 150.996 71.4796 151.776 70.6529 152.336C69.8396 152.883 68.8662 153.156 67.7329 153.156C66.1329 153.156 64.8396 152.656 63.8529 151.656C62.8662 150.656 62.3729 149.396 62.3729 147.876C62.3729 146.369 62.8662 145.116 63.8529 144.116C64.8396 143.103 66.1129 142.596 67.6729 142.596C69.1262 142.596 70.3196 143.103 71.2529 144.116C72.1862 145.129 72.6529 146.383 72.6529 147.876C72.6529 148.303 72.6196 148.656 72.5529 148.936H65.0529ZM65.0329 146.916H70.0729C69.9262 146.236 69.6329 145.736 69.1929 145.416C68.7529 145.083 68.2396 144.916 67.6529 144.916C66.9729 144.916 66.4062 145.089 65.9529 145.436C65.4996 145.783 65.1929 146.276 65.0329 146.916ZM83.4763 152.876H80.4963L76.9963 148.356V152.876H74.4163V142.876H76.9963V147.276L80.2963 142.876H83.2763L79.4763 147.816L83.4763 152.876ZM91.3684 142.876H93.2884V152.876H90.7684V147.076L86.6684 152.876H84.7484V142.876H87.2684V148.676L91.3684 142.876ZM107.747 138.876H110.487V152.876H107.747V147.876C106.973 148.156 106.167 148.296 105.327 148.296C103.913 148.296 102.747 147.903 101.827 147.116C100.92 146.316 100.467 145.236 100.467 143.876V138.876H103.227V143.516C103.227 144.183 103.42 144.709 103.807 145.096C104.207 145.469 104.733 145.656 105.387 145.656C106.24 145.656 107.027 145.509 107.747 145.216V138.876ZM116.971 142.596C118.144 142.596 119.118 142.943 119.891 143.636C120.664 144.316 121.051 145.276 121.051 146.516V152.876H118.531V152.016C117.904 152.776 116.998 153.156 115.811 153.156C114.864 153.156 114.064 152.883 113.411 152.336C112.771 151.776 112.451 150.996 112.451 149.996C112.451 148.996 112.771 148.223 113.411 147.676C114.064 147.129 114.864 146.856 115.811 146.856C116.944 146.856 117.851 147.149 118.531 147.736V146.676C118.531 145.556 118.011 144.996 116.971 144.996C116.504 144.996 116.131 145.116 115.851 145.356C115.571 145.583 115.431 145.889 115.431 146.276H112.911C112.911 145.143 113.298 144.249 114.071 143.596C114.858 142.929 115.824 142.596 116.971 142.596ZM116.691 151.236C117.251 151.236 117.698 151.123 118.031 150.896C118.364 150.656 118.531 150.356 118.531 149.996C118.531 149.609 118.364 149.309 118.031 149.096C117.711 148.869 117.264 148.756 116.691 148.756C116.144 148.756 115.731 148.869 115.451 149.096C115.171 149.323 115.031 149.623 115.031 149.996C115.031 150.369 115.171 150.669 115.451 150.896C115.731 151.123 116.144 151.236 116.691 151.236ZM129.107 142.876H131.687V152.876H129.107V149.076H125.727V152.876H123.147V142.876H125.727V146.656H129.107V142.876Z" fill="white"/>
<line x1="33.8613" y1="117.832" x2="468.139" y2="117.832" stroke="#1E2538" stroke-width="2"/>
<path d="M35.488 89.946C35.9827 90.1793 36.3747 90.506 36.664 90.926C36.9627 91.3367 37.112 91.808 37.112 92.34C37.112 93.2267 36.7993 93.922 36.174 94.426C35.5487 94.9207 34.7693 95.168 33.836 95.168C32.9027 95.168 32.1233 94.9207 31.498 94.426C30.8727 93.922 30.56 93.2267 30.56 92.34C30.56 91.808 30.7047 91.3367 30.994 90.926C31.2927 90.506 31.6893 90.1793 32.184 89.946C31.316 89.4513 30.882 88.7187 30.882 87.748C30.882 86.8707 31.1713 86.1987 31.75 85.732C32.338 85.2653 33.0333 85.032 33.836 85.032C34.6387 85.032 35.3293 85.2653 35.908 85.732C36.496 86.1987 36.79 86.8707 36.79 87.748C36.79 88.7187 36.356 89.4513 35.488 89.946ZM35.236 86.418C34.8627 86.1287 34.396 85.984 33.836 85.984C33.276 85.984 32.8047 86.1287 32.422 86.418C32.0487 86.7073 31.862 87.1507 31.862 87.748C31.862 88.308 32.0533 88.742 32.436 89.05C32.828 89.358 33.2947 89.512 33.836 89.512C34.3773 89.512 34.8393 89.358 35.222 89.05C35.614 88.742 35.81 88.308 35.81 87.748C35.81 87.1507 35.6187 86.7073 35.236 86.418ZM32.17 93.74C32.59 94.0573 33.1453 94.216 33.836 94.216C34.5267 94.216 35.082 94.0573 35.502 93.74C35.922 93.4133 36.132 92.9467 36.132 92.34C36.132 91.7333 35.922 91.2713 35.502 90.954C35.082 90.6273 34.5267 90.464 33.836 90.464C33.1453 90.464 32.59 90.6273 32.17 90.954C31.75 91.2713 31.54 91.7333 31.54 92.34C31.54 92.9467 31.75 93.4133 32.17 93.74ZM37.8132 85.2H43.8332V86.124L40.1372 95H39.1152L42.8112 86.124H37.8132V85.2ZM54.3365 88V95H53.4125V88.896H50.5285V92.018C50.5285 93.1847 50.3045 93.9873 49.8565 94.426C49.4178 94.8647 48.8112 95.056 48.0365 95V94.132C48.5685 94.188 48.9605 94.062 49.2125 93.754C49.4738 93.446 49.6045 92.8673 49.6045 92.018V88H50.5285H54.3365ZM59.4643 87.832C60.491 87.832 61.3123 88.196 61.9283 88.924C62.5536 89.652 62.8663 90.52 62.8663 91.528C62.8663 91.6307 62.857 91.7753 62.8383 91.962H61.9143H56.8323C56.9256 92.6713 57.2103 93.236 57.6863 93.656C58.1716 94.0667 58.769 94.272 59.4783 94.272C59.9823 94.272 60.421 94.1647 60.7943 93.95C61.1676 93.726 61.4336 93.4367 61.5923 93.082H62.6143C62.4183 93.698 62.0356 94.202 61.4663 94.594C60.897 94.9767 60.2296 95.168 59.4643 95.168C58.4003 95.168 57.537 94.8227 56.8743 94.132C56.2116 93.4413 55.8803 92.564 55.8803 91.5C55.8803 90.4547 56.2116 89.582 56.8743 88.882C57.537 88.182 58.4003 87.832 59.4643 87.832ZM59.4643 88.728C58.7363 88.728 58.1343 88.9427 57.6583 89.372C57.1916 89.8013 56.9163 90.366 56.8323 91.066H61.9143C61.8303 90.3287 61.5596 89.7547 61.1023 89.344C60.645 88.9333 60.099 88.728 59.4643 88.728ZM68.4776 88V88.896H66.2796V95H65.3556V88.896H63.1576V88H66.2796H68.4776Z" fill="#F2F60F"/>
<path d="M41.1363 60.7554V62.4054H38.4813V71.2554H36.7563V62.4054H34.0863V60.7554H38.4813H41.1363ZM42.0134 62.5554V60.7554H43.6334V62.5554H42.0134ZM42.0134 71.2554V63.7554H43.6334V71.2554H42.0134ZM49.2643 63.5604C49.9843 63.5604 50.5743 63.8204 51.0343 64.3404C51.5043 64.8504 51.7393 65.5454 51.7393 66.4254V71.2554H50.1193V66.5154C50.1193 66.0554 49.9893 65.7004 49.7293 65.4504C49.4793 65.2004 49.1493 65.0754 48.7393 65.0754C48.2793 65.0754 47.8943 65.2254 47.5843 65.5254C47.2843 65.8254 47.1343 66.3004 47.1343 66.9504V71.2554H45.5143V63.7554H47.1343V64.6104C47.5943 63.9104 48.3043 63.5604 49.2643 63.5604ZM57.1441 63.7554V65.3154H55.7641V71.2554H54.1441V65.3154H52.7641V63.7554H54.1441V61.3554H55.7641V63.7554H57.1441ZM61.6813 71.4504C60.5813 71.4504 59.6463 71.0704 58.8763 70.3104C58.1063 69.5504 57.7213 68.6154 57.7213 67.5054C57.7213 66.3954 58.1063 65.4604 58.8763 64.7004C59.6463 63.9404 60.5813 63.5604 61.6813 63.5604C62.7913 63.5604 63.7263 63.9404 64.4863 64.7004C65.2563 65.4604 65.6413 66.3954 65.6413 67.5054C65.6413 68.6154 65.2563 69.5504 64.4863 70.3104C63.7263 71.0704 62.7913 71.4504 61.6813 71.4504ZM60.0163 69.2004C60.4663 69.6504 61.0213 69.8754 61.6813 69.8754C62.3413 69.8754 62.8963 69.6504 63.3463 69.2004C63.7963 68.7504 64.0213 68.1854 64.0213 67.5054C64.0213 66.8254 63.7963 66.2604 63.3463 65.8104C62.8963 65.3604 62.3413 65.1354 61.6813 65.1354C61.0213 65.1354 60.4663 65.3604 60.0163 65.8104C59.5663 66.2604 59.3413 66.8254 59.3413 67.5054C59.3413 68.1854 59.5663 68.7504 60.0163 69.2004ZM77.8611 64.7904C78.4411 65.0704 78.8961 65.4854 79.2261 66.0354C79.5661 66.5854 79.7361 67.2004 79.7361 67.8804C79.7361 68.8304 79.4211 69.6304 78.7911 70.2804C78.1611 70.9304 77.3711 71.2554 76.4211 71.2554H71.3361H70.9611V60.7554H72.6861H75.2661C76.1361 60.7554 76.8461 61.0154 77.3961 61.5354C77.9561 62.0554 78.2361 62.7104 78.2361 63.5004C78.2361 63.9504 78.1111 64.3804 77.8611 64.7904ZM75.2661 62.3754H72.6861V64.4304H76.1811C76.4011 64.1904 76.5111 63.9054 76.5111 63.5754C76.5111 63.2254 76.3961 62.9404 76.1661 62.7204C75.9461 62.4904 75.6461 62.3754 75.2661 62.3754ZM76.1961 69.6354C76.7661 69.6354 77.2111 69.4604 77.5311 69.1104C77.8511 68.7604 78.0111 68.3254 78.0111 67.8054C78.0111 67.2754 77.8511 66.8404 77.5311 66.5004C77.2211 66.1504 76.7811 65.9754 76.2111 65.9754H72.6861V69.6354H76.1961ZM82.7447 64.8804C83.1547 64.0404 83.8747 63.6204 84.9047 63.6204V65.3754C84.3047 65.3354 83.7947 65.4804 83.3747 65.8104C82.9547 66.1304 82.7447 66.6604 82.7447 67.4004V71.2554H81.1247V63.7554H82.7447V64.8804ZM88.8244 63.5604C89.6944 63.5604 90.4094 63.8154 90.9694 64.3254C91.5294 64.8354 91.8094 65.5454 91.8094 66.4554V71.2554H90.2194V70.5504C89.7394 71.1504 89.0294 71.4504 88.0894 71.4504C87.3694 71.4504 86.7594 71.2454 86.2594 70.8354C85.7594 70.4154 85.5094 69.8254 85.5094 69.0654C85.5094 68.3054 85.7594 67.7204 86.2594 67.3104C86.7594 66.9004 87.3694 66.6954 88.0894 66.6954C88.9994 66.6954 89.7094 66.9504 90.2194 67.4604V66.5304C90.2194 66.0304 90.0944 65.6654 89.8444 65.4354C89.5944 65.1954 89.2544 65.0754 88.8244 65.0754C88.4144 65.0754 88.0794 65.1804 87.8194 65.3904C87.5594 65.5904 87.4294 65.8704 87.4294 66.2304H85.8394C85.8394 65.4204 86.1194 64.7754 86.6794 64.2954C87.2494 63.8054 87.9644 63.5604 88.8244 63.5604ZM88.6144 70.1904C89.0944 70.1904 89.4794 70.0854 89.7694 69.8754C90.0694 69.6654 90.2194 69.3954 90.2194 69.0654C90.2194 68.7254 90.0694 68.4554 89.7694 68.2554C89.4794 68.0554 89.0944 67.9554 88.6144 67.9554C88.1244 67.9554 87.7544 68.0554 87.5044 68.2554C87.2544 68.4554 87.1294 68.7254 87.1294 69.0654C87.1294 69.4054 87.2544 69.6804 87.5044 69.8904C87.7544 70.0904 88.1244 70.1904 88.6144 70.1904ZM95.2276 65.2404C95.0076 65.3804 94.8976 65.5854 94.8976 65.8554C94.8976 66.1254 95.0376 66.3404 95.3176 66.5004C95.6076 66.6504 95.9526 66.7704 96.3526 66.8604C96.7626 66.9404 97.1726 67.0454 97.5826 67.1754C97.9926 67.3054 98.3376 67.5354 98.6176 67.8654C98.9076 68.1854 99.0526 68.6104 99.0526 69.1404C99.0526 69.8604 98.7726 70.4254 98.2126 70.8354C97.6626 71.2454 96.9626 71.4504 96.1126 71.4504C95.2426 71.4504 94.5326 71.2304 93.9826 70.7904C93.4326 70.3504 93.1576 69.7304 93.1576 68.9304H94.7476C94.7476 69.6404 95.2026 69.9954 96.1126 69.9954C96.5126 69.9954 96.8326 69.9254 97.0726 69.7854C97.3126 69.6354 97.4326 69.4204 97.4326 69.1404C97.4326 68.8704 97.2876 68.6604 96.9976 68.5104C96.7176 68.3604 96.3726 68.2454 95.9626 68.1654C95.5526 68.0754 95.1426 67.9654 94.7326 67.8354C94.3326 67.7054 93.9876 67.4754 93.6976 67.1454C93.4176 66.8154 93.2776 66.3854 93.2776 65.8554C93.2776 65.1554 93.5476 64.6004 94.0876 64.1904C94.6376 63.7704 95.3126 63.5604 96.1126 63.5604C96.9026 63.5604 97.5626 63.7804 98.0926 64.2204C98.6326 64.6604 98.9026 65.2754 98.9026 66.0654H97.3126C97.3126 65.7154 97.1976 65.4554 96.9676 65.2854C96.7376 65.1054 96.4526 65.0154 96.1126 65.0154C95.7526 65.0154 95.4576 65.0904 95.2276 65.2404ZM102.171 65.2404C101.951 65.3804 101.841 65.5854 101.841 65.8554C101.841 66.1254 101.981 66.3404 102.261 66.5004C102.551 66.6504 102.896 66.7704 103.296 66.8604C103.706 66.9404 104.116 67.0454 104.526 67.1754C104.936 67.3054 105.281 67.5354 105.561 67.8654C105.851 68.1854 105.996 68.6104 105.996 69.1404C105.996 69.8604 105.716 70.4254 105.156 70.8354C104.606 71.2454 103.906 71.4504 103.056 71.4504C102.186 71.4504 101.476 71.2304 100.926 70.7904C100.376 70.3504 100.101 69.7304 100.101 68.9304H101.691C101.691 69.6404 102.146 69.9954 103.056 69.9954C103.456 69.9954 103.776 69.9254 104.016 69.7854C104.256 69.6354 104.376 69.4204 104.376 69.1404C104.376 68.8704 104.231 68.6604 103.941 68.5104C103.661 68.3604 103.316 68.2454 102.906 68.1654C102.496 68.0754 102.086 67.9654 101.676 67.8354C101.276 67.7054 100.931 67.4754 100.641 67.1454C100.361 66.8154 100.221 66.3854 100.221 65.8554C100.221 65.1554 100.491 64.6004 101.031 64.1904C101.581 63.7704 102.256 63.5604 103.056 63.5604C103.846 63.5604 104.506 63.7804 105.036 64.2204C105.576 64.6604 105.846 65.2754 105.846 66.0654H104.256C104.256 65.7154 104.141 65.4554 103.911 65.2854C103.681 65.1054 103.396 65.0154 103.056 65.0154C102.696 65.0154 102.401 65.0904 102.171 65.2404Z" fill="#3B486B"/>
<path d="M397.513 58.5487C398.283 58.7387 398.903 59.0987 399.373 59.6287C399.853 60.1487 400.093 60.8037 400.093 61.5937C400.093 62.6437 399.738 63.4687 399.028 64.0687C398.318 64.6687 397.448 64.9687 396.418 64.9687C395.388 64.9687 394.518 64.6687 393.808 64.0687C393.098 63.4687 392.743 62.6437 392.743 61.5937H394.468C394.468 62.1137 394.643 62.5287 394.993 62.8387C395.353 63.1387 395.828 63.2887 396.418 63.2887C397.018 63.2887 397.493 63.1387 397.843 62.8387C398.193 62.5287 398.368 62.1137 398.368 61.5937C398.368 61.0737 398.193 60.6637 397.843 60.3637C397.493 60.0637 397.018 59.9137 396.418 59.9137H395.428V58.7737L397.573 55.8937H393.178V54.2737H399.628V55.7437L397.513 58.5487ZM401.668 60.9937V59.4337H407.218V60.9937H401.668ZM410.47 61.7137C410.59 62.3137 410.855 62.7737 411.265 63.0937C411.685 63.4137 412.19 63.5737 412.78 63.5737C413.18 63.5737 413.54 63.4887 413.86 63.3187C414.18 63.1487 414.41 62.9287 414.55 62.6587L416.2 62.6437C415.97 63.3637 415.545 63.9337 414.925 64.3537C414.315 64.7637 413.59 64.9687 412.75 64.9687C411.57 64.9687 410.615 64.5987 409.885 63.8587C409.155 63.1087 408.79 62.1637 408.79 61.0237C408.79 59.8937 409.155 58.9537 409.885 58.2037C410.615 57.4537 411.56 57.0787 412.72 57.0787C413.82 57.0787 414.715 57.4637 415.405 58.2337C416.095 58.9937 416.44 59.9287 416.44 61.0387C416.44 61.2087 416.42 61.4337 416.38 61.7137H410.47ZM410.455 60.3787H414.805C414.705 59.7787 414.46 59.3237 414.07 59.0137C413.69 58.7037 413.24 58.5487 412.72 58.5487C412.12 58.5487 411.62 58.7137 411.22 59.0437C410.82 59.3737 410.565 59.8187 410.455 60.3787ZM429.373 57.2737V64.7737H427.798V59.7337L425.953 63.3337H424.993L423.148 59.7337V64.7737H421.573V57.2737H423.148H423.313L425.473 61.4887L427.633 57.2737H429.373ZM432.501 61.7137C432.621 62.3137 432.886 62.7737 433.296 63.0937C433.716 63.4137 434.221 63.5737 434.811 63.5737C435.211 63.5737 435.571 63.4887 435.891 63.3187C436.211 63.1487 436.441 62.9287 436.581 62.6587L438.231 62.6437C438.001 63.3637 437.576 63.9337 436.956 64.3537C436.346 64.7637 435.621 64.9687 434.781 64.9687C433.601 64.9687 432.646 64.5987 431.916 63.8587C431.186 63.1087 430.821 62.1637 430.821 61.0237C430.821 59.8937 431.186 58.9537 431.916 58.2037C432.646 57.4537 433.591 57.0787 434.751 57.0787C435.851 57.0787 436.746 57.4637 437.436 58.2337C438.126 58.9937 438.471 59.9287 438.471 61.0387C438.471 61.2087 438.451 61.4337 438.411 61.7137H432.501ZM432.486 60.3787H436.836C436.736 59.7787 436.491 59.3237 436.101 59.0137C435.721 58.7037 435.271 58.5487 434.751 58.5487C434.151 58.5487 433.651 58.7137 433.251 59.0437C432.851 59.3737 432.596 59.8187 432.486 60.3787ZM447.099 62.1487C446.909 62.9787 446.469 63.6587 445.779 64.1887C445.089 64.7087 444.294 64.9687 443.394 64.9687C442.264 64.9687 441.319 64.5887 440.559 63.8287C439.809 63.0687 439.434 62.1337 439.434 61.0237C439.434 59.9037 439.809 58.9687 440.559 58.2187C441.319 57.4587 442.264 57.0787 443.394 57.0787C444.304 57.0787 445.099 57.3437 445.779 57.8737C446.469 58.3937 446.909 59.0687 447.099 59.8987H445.389C445.229 59.5187 444.969 59.2187 444.609 58.9987C444.259 58.7787 443.854 58.6687 443.394 58.6687C442.734 58.6687 442.179 58.8937 441.729 59.3437C441.279 59.7937 441.054 60.3537 441.054 61.0237C441.054 61.6937 441.279 62.2537 441.729 62.7037C442.179 63.1537 442.734 63.3787 443.394 63.3787C443.854 63.3787 444.264 63.2687 444.624 63.0487C444.984 62.8187 445.239 62.5187 445.389 62.1487H447.099ZM453.363 57.2737V58.8037H451.218V64.7737H449.598V58.8037H447.438V57.2737H451.218H453.363ZM457.735 64.9687C456.635 64.9687 455.7 64.5887 454.93 63.8287C454.16 63.0687 453.775 62.1337 453.775 61.0237C453.775 59.9137 454.16 58.9787 454.93 58.2187C455.7 57.4587 456.635 57.0787 457.735 57.0787C458.845 57.0787 459.78 57.4587 460.54 58.2187C461.31 58.9787 461.695 59.9137 461.695 61.0237C461.695 62.1337 461.31 63.0687 460.54 63.8287C459.78 64.5887 458.845 64.9687 457.735 64.9687ZM456.07 62.7187C456.52 63.1687 457.075 63.3937 457.735 63.3937C458.395 63.3937 458.95 63.1687 459.4 62.7187C459.85 62.2687 460.075 61.7037 460.075 61.0237C460.075 60.3437 459.85 59.7787 459.4 59.3287C458.95 58.8787 458.395 58.6537 457.735 58.6537C457.075 58.6537 456.52 58.8787 456.07 59.3287C455.62 59.7787 455.395 60.3437 455.395 61.0237C455.395 61.7037 455.62 62.2687 456.07 62.7187Z" fill="#F2F60F"/>
<path d="M43.76 35V37.64H40.38V49H37.62V37.64H34.26V35H40.38H43.76ZM50.9797 39H52.8997V49H50.3797V43.2L46.2797 49H44.3597V39H46.8797V44.8L50.9797 39ZM61.2181 39H63.7981V49H61.2181V45.2H57.8381V49H55.2581V39H57.8381V42.78H61.2181V39ZM73.2366 39V41.42H70.5166V49H67.9366V41.42H65.1766V39H70.5166H73.2366ZM82.8211 47.76C81.7944 48.7733 80.5411 49.28 79.0611 49.28C77.5811 49.28 76.3278 48.7733 75.3011 47.76C74.2878 46.7333 73.7811 45.48 73.7811 44C73.7811 42.52 74.2878 41.2733 75.3011 40.26C76.3278 39.2333 77.5811 38.72 79.0611 38.72C80.5411 38.72 81.7944 39.2333 82.8211 40.26C83.8478 41.2733 84.3611 42.52 84.3611 44C84.3611 45.48 83.8478 46.7333 82.8211 47.76ZM77.1211 45.98C77.6411 46.5 78.2878 46.76 79.0611 46.76C79.8344 46.76 80.4811 46.5 81.0011 45.98C81.5211 45.46 81.7811 44.8 81.7811 44C81.7811 43.2 81.5211 42.54 81.0011 42.02C80.4811 41.5 79.8344 41.24 79.0611 41.24C78.2878 41.24 77.6411 41.5 77.1211 42.02C76.6144 42.54 76.3611 43.2 76.3611 44C76.3611 44.8 76.6144 45.46 77.1211 45.98ZM96.6561 40.3C98.0161 40.3 99.1294 40.7067 99.9961 41.52C100.863 42.32 101.296 43.36 101.296 44.64C101.296 45.9333 100.863 46.9867 99.9961 47.8C99.1294 48.6 98.0161 49 96.6561 49H92.1961H91.2961V35H94.0561H100.096V37.64H94.0561V40.3H96.6561ZM96.6561 46.42C97.2028 46.42 97.6561 46.2667 98.0161 45.96C98.3761 45.64 98.5561 45.2 98.5561 44.64C98.5561 44.08 98.3761 43.6467 98.0161 43.34C97.6561 43.0333 97.2028 42.88 96.6561 42.88H94.0561V46.42H96.6561ZM108.695 38.72C110.042 38.72 111.189 39.2333 112.135 40.26C113.095 41.2733 113.575 42.52 113.575 44C113.575 45.48 113.095 46.7333 112.135 47.76C111.189 48.7733 110.042 49.28 108.695 49.28C107.309 49.28 106.229 48.8 105.455 47.84V53H102.875V39H105.455V40.16C106.229 39.2 107.309 38.72 108.695 38.72ZM108.215 46.82C109.015 46.82 109.675 46.56 110.195 46.04C110.729 45.5067 110.995 44.8267 110.995 44C110.995 43.1733 110.729 42.5 110.195 41.98C109.675 41.4467 109.015 41.18 108.215 41.18C107.455 41.18 106.815 41.4267 106.295 41.92C105.775 42.4 105.495 43.0333 105.455 43.82V44.18C105.495 44.9667 105.775 45.6067 106.295 46.1C106.815 46.58 107.455 46.82 108.215 46.82ZM119.18 38.72C120.353 38.72 121.327 39.0667 122.1 39.76C122.873 40.44 123.26 41.4 123.26 42.64V49H120.74V48.14C120.113 48.9 119.207 49.28 118.02 49.28C117.073 49.28 116.273 49.0067 115.62 48.46C114.98 47.9 114.66 47.12 114.66 46.12C114.66 45.12 114.98 44.3467 115.62 43.8C116.273 43.2533 117.073 42.98 118.02 42.98C119.153 42.98 120.06 43.2733 120.74 43.86V42.8C120.74 41.68 120.22 41.12 119.18 41.12C118.713 41.12 118.34 41.24 118.06 41.48C117.78 41.7067 117.64 42.0133 117.64 42.4H115.12C115.12 41.2667 115.507 40.3733 116.28 39.72C117.067 39.0533 118.033 38.72 119.18 38.72ZM118.9 47.36C119.46 47.36 119.907 47.2467 120.24 47.02C120.573 46.78 120.74 46.48 120.74 46.12C120.74 45.7333 120.573 45.4333 120.24 45.22C119.92 44.9933 119.473 44.88 118.9 44.88C118.353 44.88 117.94 44.9933 117.66 45.22C117.38 45.4467 117.24 45.7467 117.24 46.12C117.24 46.4933 117.38 46.7933 117.66 47.02C117.94 47.2467 118.353 47.36 118.9 47.36ZM135.116 45.34C134.889 46.4867 134.309 47.4333 133.376 48.18C132.442 48.9133 131.356 49.28 130.116 49.28C128.609 49.28 127.349 48.7733 126.336 47.76C125.336 46.7467 124.836 45.4933 124.836 44C124.836 42.5067 125.336 41.2533 126.336 40.24C127.349 39.2267 128.609 38.72 130.116 38.72C131.356 38.72 132.442 39.0867 133.376 39.82C134.309 40.5533 134.889 41.4933 135.116 42.64H132.396C132.209 42.2133 131.909 41.88 131.496 41.64C131.096 41.3867 130.636 41.26 130.116 41.26C129.356 41.26 128.716 41.52 128.196 42.04C127.676 42.5467 127.416 43.2 127.416 44C127.416 44.7867 127.676 45.44 128.196 45.96C128.716 46.4667 129.356 46.72 130.116 46.72C130.649 46.72 131.116 46.6 131.516 46.36C131.929 46.1067 132.222 45.7667 132.396 45.34H135.116ZM146.444 45.34C146.217 46.4867 145.637 47.4333 144.704 48.18C143.771 48.9133 142.684 49.28 141.444 49.28C139.937 49.28 138.677 48.7733 137.664 47.76C136.664 46.7467 136.164 45.4933 136.164 44C136.164 42.5067 136.664 41.2533 137.664 40.24C138.677 39.2267 139.937 38.72 141.444 38.72C142.684 38.72 143.771 39.0867 144.704 39.82C145.637 40.5533 146.217 41.4933 146.444 42.64H143.724C143.537 42.2133 143.237 41.88 142.824 41.64C142.424 41.3867 141.964 41.26 141.444 41.26C140.684 41.26 140.044 41.52 139.524 42.04C139.004 42.5467 138.744 43.2 138.744 44C138.744 44.7867 139.004 45.44 139.524 45.96C140.044 46.4667 140.684 46.72 141.444 46.72C141.977 46.72 142.444 46.6 142.844 46.36C143.257 46.1067 143.551 45.7667 143.724 45.34H146.444Z" fill="white"/>
</svg>
